<svg width="628" height="628" viewBox="0 0 628 628" fill="none" xmlns="http://www.w3.org/2000/svg">
<path d="M472.193 153.024C469.581 145.777 466.673 138.58 463.489 131.584C457.146 117.661 455.689 104.467 446.778 92.824" stroke="#CCDDE2" stroke-width="7.24" stroke-miterlimit="10"/>
<path d="M426.123 79.479C418.455 71.6792 411.283 63.2954 398.252 57.0341C370.715 43.8461 335.503 42.5085 290.557 61.1601" stroke="#CCDDE2" stroke-width="7.24" stroke-miterlimit="10"/>
<path d="M101.598 590.621C58.046 529.058 43.96 459.457 51.2385 388.274" stroke="#CCDDE2" stroke-width="7.24" stroke-miterlimit="10"/>
<path d="M496.698 287.556V288.315C496.271 302.131 509.038 359.405 545.248 377.598C581.459 395.791 607.276 475.648 525.636 506.979C443.996 538.31 448.442 590.622 448.442 590.622" stroke="#CCDDE2" stroke-width="7.24" stroke-miterlimit="10"/>
<path d="M290.551 120.293V52.632C290.539 47.9836 288.687 43.529 285.4 40.2421C282.113 36.9552 277.659 35.1035 273.01 35.0919H48.9401C44.2917 35.1035 39.8371 36.9552 36.5502 40.2421C33.2633 43.529 31.4116 47.9836 31.4 52.632V370.777C31.4083 375.423 33.2602 379.875 36.5489 383.157C39.8375 386.439 44.2942 388.281 48.9401 388.279H273.01C275.184 388.293 277.339 387.879 279.353 387.061" stroke="black" stroke-width="7.24" stroke-linecap="round" stroke-linejoin="round"/>
<path d="M267.013 45.812H54.9375C46.2839 45.812 39.2689 52.8271 39.2689 61.4806V361.922C39.2689 370.576 46.2839 377.591 54.9375 377.591H267.013C275.667 377.591 282.682 370.576 282.682 361.922V61.4806C282.682 52.8271 275.667 45.812 267.013 45.812Z" fill="#3FBDF1"/>
<path d="M263.176 71.484H61.4374C57.1089 71.484 53.5999 74.9933 53.5999 79.3214V125.768C53.5999 130.097 57.1089 133.606 61.4374 133.606H263.176C267.505 133.606 271.013 130.097 271.013 125.768V79.3214C271.013 74.9933 267.505 71.484 263.176 71.484Z" fill="#3FBDF1"/>
<path d="M160.975 97.6483C164.523 97.6483 167.4 94.7721 167.4 91.2239C167.4 87.6757 164.523 84.7994 160.975 84.7994C157.427 84.7994 154.551 87.6757 154.551 91.2239C154.551 94.7721 157.427 97.6483 160.975 97.6483Z" fill="#D7E8F0"/>
<path d="M143.021 120.294C143.021 115.532 144.912 110.965 148.28 107.598C151.646 104.231 156.213 102.339 160.975 102.339C165.737 102.339 170.304 104.231 173.671 107.598C177.038 110.965 178.93 115.532 178.93 120.294H143.021Z" fill="#D7E8F0"/>
<path d="M162.281 200.167C155.432 200.164 148.736 202.192 143.04 205.995C137.343 209.797 132.903 215.204 130.28 221.531C127.657 227.859 126.97 234.821 128.305 241.539C129.641 248.257 132.938 254.427 137.781 259.27C142.624 264.114 148.795 267.411 155.513 268.746C162.231 270.082 169.193 269.394 175.52 266.772C181.847 264.149 187.255 259.709 191.057 254.012C194.86 248.316 196.888 241.62 196.884 234.77C196.879 225.595 193.232 216.796 186.744 210.308C180.255 203.82 171.457 200.173 162.281 200.167ZM162.281 261.027C160.941 261.027 159.656 260.495 158.709 259.547C157.762 258.6 157.229 257.315 157.229 255.975C157.229 254.635 157.762 253.35 158.709 252.403C159.656 251.455 160.941 250.922 162.281 250.922C163.622 250.922 164.906 251.455 165.854 252.403C166.801 253.35 167.334 254.635 167.334 255.975C167.334 257.315 166.801 258.6 165.854 259.547C164.906 260.495 163.622 261.027 162.281 261.027ZM168.693 222.091C167.607 229.589 166.69 237.496 164.486 244.787C163.946 246.52 160.655 246.52 160.09 244.787C158.51 239.299 157.298 233.712 156.46 228.063C155.782 223.956 153.376 217.312 155.681 213.305C157.684 209.744 163.38 209.305 166.671 211.17C170.759 213.519 169.164 218.386 168.693 222.116V222.091Z" fill="#D7E8F0"/>
<path d="M75.3412 161.339H244.392" stroke="white" stroke-width="7.24" stroke-miterlimit="10"/>
<path d="M75.3412 177.974H244.392" stroke="white" stroke-width="7.24" stroke-miterlimit="10"/>
<path d="M75.3412 285.131H244.392" stroke="white" stroke-width="7.24" stroke-miterlimit="10"/>
<path d="M114.61 300.868H205.124" stroke="white" stroke-width="7.24" stroke-miterlimit="10"/>
<path d="M93.302 403.929C93.302 403.929 123.383 284.395 217.075 255.2L255.156 246.113C255.156 246.113 261.179 219.215 258.962 216.389C256.745 213.563 252.192 207.773 243.852 209.029C235.513 210.285 213.953 210.687 208.433 184.33C202.913 157.973 223.311 95.3235 276.32 85.9538C329.33 76.584 330.567 115.507 330.567 115.507L291.631 205.732L297.672 278.517L298.432 386.942L93.302 403.929Z" fill="white"/>
<path d="M417.067 311.59C416.439 311.772 408.426 314.102 405.273 319.654C404.673 318.383 403.724 317.309 402.536 316.557C401.348 315.805 399.972 315.407 398.566 315.408H304.461C302.786 315.405 301.16 315.971 299.85 317.012C298.539 318.054 297.62 319.51 297.245 321.142L278.713 400.603C277.457 400.358 276.201 400.207 274.894 400.082L231.16 389.167C229.285 388.696 227.3 388.942 225.596 389.856C223.891 390.77 222.588 392.286 221.941 394.109C221.65 394.927 221.506 395.791 221.514 396.659C221.514 398.631 222.262 400.53 223.607 401.973C224.952 403.416 226.794 404.295 228.762 404.434L249.442 405.765C229.521 415.141 205.287 433.001 185.059 449.411C165.377 418.595 183.847 387.786 197.738 371.194C195.949 352.906 186.88 310.447 141.633 311.602C157.22 291.613 176.656 274.482 200.74 263.014C283.234 354.451 377.61 279.694 379.613 278.086C393.726 287.292 406.356 298.595 417.067 311.602" fill="#2E2E2E"/>
<path d="M408.495 573.892V589.692H136.062V567.311C146.676 567.939 157.842 565.427 167.996 560.848C180.851 554.995 191.954 545.902 201.45 535.527C211.215 524.789 216.578 509.899 222.802 496.949C232.146 477.45 244.524 463.559 264.168 457.674L262.912 463.075C262.66 464.162 262.657 465.293 262.902 466.382C263.146 467.47 263.634 468.49 264.327 469.364C265.02 470.239 265.902 470.945 266.906 471.432C267.911 471.919 269.012 472.173 270.128 472.175H364.705C362.821 488.503 354.877 577.679 408.495 573.911" fill="#2E2E2E"/>
<path d="M364.749 158.338C364.673 166.786 363.572 175.193 361.471 183.376C360.512 187.256 358.454 190.776 355.545 193.515C352.635 196.254 348.997 198.096 345.067 198.818C344.91 193.116 342.486 188.111 338.787 185.002C339.125 180.175 339.077 175.328 338.643 170.508C338.398 167.324 338.015 164.354 337.613 161.685C337.374 160.166 337.028 158.665 336.577 157.195C335.314 155.839 333.827 154.71 332.181 153.86C326.359 150.582 314.377 147.096 292.177 152.221C288.552 153.051 285.142 154.632 282.167 156.862C282.101 156.903 282.042 156.953 281.991 157.012C279.988 158.859 277.438 161.195 274.8 162.407C272.068 163.663 269.217 163.713 266.825 160.743C266.762 160.68 266.731 160.623 266.674 160.561C265.418 158.922 264.219 156.793 262.002 156.372C257.329 155.493 255.056 160.14 254.466 164.046C253.951 167.657 255.012 170.841 256.563 173.874C257.863 176.34 259.56 178.575 261.587 180.487C262.108 180.991 262.584 181.536 263.013 182.12C262.818 182.154 262.627 182.207 262.441 182.277C262.012 182.421 261.592 182.593 261.185 182.792C255.533 185.335 251.508 191.709 251.42 199.17C251.42 199.402 241.943 199.264 240.744 199.17C236.122 198.743 231.569 197.412 228.316 193.926C219.084 184.035 219.128 169.359 222.921 157.879C226.513 146.983 231.085 136.345 237.076 126.542C250.057 105.328 270.197 89.6783 295.694 88.2716C301.809 87.9645 307.938 88.3225 313.975 89.3392C316.832 89.7895 319.657 90.4187 322.434 91.2232C348.427 102.565 364.925 128.275 364.774 158.338" fill="#2E2E2E"/>
<path d="M349.696 400.18C346.625 408.062 339.315 412.571 333.368 410.228C327.42 407.886 325.084 399.647 328.149 391.765C331.213 383.884 338.53 379.369 344.477 381.717C350.424 384.066 352.766 392.305 349.696 400.187" fill="#3FBDF1"/>
<path d="M365.496 470.567C365.496 470.567 348.816 586.841 415.535 573.954C481.89 561.124 507.003 291.178 314.936 252.355" stroke="black" stroke-width="7.24" stroke-miterlimit="10"/>
<path d="M209.287 358.627C209.287 358.627 155.455 404.026 184.462 449.43" stroke="black" stroke-width="7.24" stroke-miterlimit="10"/>
<path d="M366.708 438.27C365.785 438.327 364.466 437.712 363.568 437.467C362.43 437.165 361.301 436.842 360.183 436.5C353.625 434.458 347.454 431.334 341.927 427.255C340.671 426.357 338.435 425.78 336.903 426.37C336.05 426.683 335.297 427.219 334.723 427.923C334.148 428.626 333.773 429.472 333.638 430.37C333.167 433.611 335.453 436.782 337.946 438.861C340.904 441.335 343.974 443.615 347.56 445.097C351.022 446.486 354.593 447.585 358.236 448.381C359.888 448.764 361.565 449.009 363.204 449.43" stroke="black" stroke-width="7.24" stroke-miterlimit="10"/>
<path d="M387.369 406.811C388.048 410.391 388.544 414.109 388.204 417.745C387.922 420.822 386.817 424.414 383.394 425.162C382.743 425.334 382.068 425.395 381.397 425.344C368.51 424.584 357.891 420.131 345.764 411.364C333.638 402.598 329.367 422.788 340.445 426.367" stroke="black" stroke-width="7.24" stroke-miterlimit="10"/>
<path d="M340.91 441.296C340.612 441.051 340.33 440.789 340.062 440.511C334.027 434.2 332.934 446.879 339.271 450.609L340.087 451.093C340.514 451.275 340.973 451.489 341.425 451.721C341.638 451.777 341.877 451.872 342.097 451.934M342.097 451.934C347.824 454.446 353.922 456.054 359.926 457.693C353.985 455.753 348.063 453.844 342.097 451.934ZM342.097 451.934C341.582 451.721 341.092 451.507 340.577 451.262C340.419 451.197 340.255 451.146 340.087 451.112C339.98 451.063 339.863 451.043 339.746 451.055C339.629 451.065 339.518 451.107 339.421 451.175C339.278 451.292 339.173 451.45 339.12 451.627C338.147 453.963 338.938 456.908 340.181 458.999C341.488 461.21 343.73 462.912 345.94 464.124C351.887 467.459 358.801 469.43 365.477 470.611C366.716 470.867 367.984 470.95 369.245 470.856" stroke="black" stroke-width="7.24" stroke-miterlimit="10"/>
<path d="M423.096 485.242C423.096 485.242 402.63 450.363 400.35 420.037C398.956 401.266 393.442 397.291 389.498 397.021" stroke="black" stroke-width="7.24" stroke-miterlimit="10"/>
<path d="M383.394 425.156L387.376 406.812L389.498 397.015L405.236 324.381C405.47 323.299 405.458 322.18 405.202 321.103C404.946 320.026 404.453 319.021 403.758 318.16C403.063 317.299 402.184 316.604 401.186 316.126C400.188 315.649 399.095 315.401 397.989 315.4H303.877C302.203 315.399 300.578 315.965 299.267 317.007C297.957 318.048 297.038 319.503 296.661 321.134L278.129 400.601L264.602 458.584L263.346 464.017C263.096 465.104 263.094 466.233 263.341 467.322C263.587 468.409 264.075 469.428 264.769 470.302C265.462 471.175 266.344 471.881 267.348 472.367C268.351 472.854 269.452 473.108 270.568 473.11H365.138" stroke="black" stroke-width="7.24" stroke-miterlimit="10"/>
<path d="M266.712 158.653C266.712 158.653 271.692 137.533 299.814 134.732C327.935 131.931 334.982 152.944 334.982 152.944L334.096 155.061C334.096 155.061 297.126 140.227 276.709 161.397C276.709 161.397 269.356 164.732 266.712 158.665" fill="#3FBDF1"/>
<path d="M274.298 400.08L230.558 389.153C229.515 388.895 228.429 388.856 227.37 389.04C226.311 389.224 225.302 389.626 224.406 390.22C223.512 390.815 222.75 391.59 222.169 392.495C221.59 393.4 221.205 394.415 221.038 395.477C220.873 396.539 220.929 397.624 221.205 398.663C221.481 399.702 221.969 400.672 222.64 401.512C223.311 402.351 224.149 403.043 225.101 403.541C226.054 404.039 227.099 404.335 228.171 404.407L248.851 405.77" stroke="black" stroke-width="7.24" stroke-miterlimit="10"/>
<path d="M379.048 278.055C379.048 278.055 283.511 355.45 200.15 263.014" stroke="black" stroke-width="7.24" stroke-miterlimit="10"/>
<path d="M197.154 371.179C195.365 352.892 186.303 310.402 141.017 311.588" stroke="black" stroke-width="7.24" stroke-miterlimit="10"/>
<path d="M416.496 311.576C416.496 311.576 407.961 313.925 404.689 319.665" stroke="black" stroke-width="7.24" stroke-miterlimit="10"/>
<path d="M69.7834 590.634H475.415" stroke="black" stroke-width="7.24" stroke-miterlimit="10"/>
<path d="M338.787 185.027C342.612 188.242 345.067 193.492 345.067 199.433C345.067 209.293 338.216 217.268 329.75 217.268C328.793 217.263 327.839 217.152 326.905 216.936C336.765 209.4 338.762 185.027 338.762 185.027" fill="#3FBDF1"/>
<path d="M283.014 224.826C287.767 227.191 292.968 228.52 298.273 228.724C303.578 228.929 308.865 228.005 313.786 226.013C341.532 214.426 340.47 180.275 337.588 161.712C337.358 160.206 337.031 158.716 336.608 157.253V157.222C333.424 146.608 325.116 137.961 314.17 135.505C292.968 130.714 273.582 142.734 265.537 158.917" stroke="black" stroke-width="7.24" stroke-miterlimit="10"/>
<path d="M336.872 157.585C336.872 157.585 336.784 157.459 336.602 157.252V157.22C334.718 155.098 323.809 144.968 292.234 152.247C288.611 153.075 285.202 154.656 282.23 156.888C282.159 156.928 282.096 156.979 282.041 157.038" stroke="black" stroke-width="7.24" stroke-miterlimit="10"/>
<path d="M252.707 209.03H237.089C225.816 209.03 216.88 198.706 212.992 189.016C207.529 175.388 211.027 161.441 215.944 148.196C220.064 137.112 225.301 126.342 232.19 116.702C247.614 95.13 270.9 82.9091 297.666 85.1699C300.04 85.3709 302.403 85.6635 304.756 86.0491C340.696 91.8769 364.931 121.927 364.749 158.319C364.673 166.773 363.573 175.187 361.471 183.377C360.504 187.253 358.444 190.77 355.534 193.508C352.624 196.246 348.989 198.089 345.061 198.819" stroke="black" stroke-width="7.24" stroke-miterlimit="10"/>
<path d="M263.025 182.12C262.595 181.536 262.118 180.988 261.6 180.481C259.571 178.572 257.873 176.339 256.576 173.874C255.025 170.841 253.963 167.657 254.478 164.046C255.056 160.165 257.329 155.493 262.014 156.372C264.231 156.799 265.412 158.922 266.686 160.561C271.535 166.841 278.21 160.529 282.305 156.736" stroke="black" stroke-width="7.24" stroke-miterlimit="10"/>
<path d="M338.787 185.027C342.612 188.242 345.067 193.492 345.067 199.433C345.067 209.293 338.216 217.268 329.75 217.268C328.793 217.263 327.839 217.152 326.905 216.936" stroke="black" stroke-width="7.24" stroke-miterlimit="10"/>
<path d="M306.012 197.13C309.441 199.435 317.724 201.325 316.06 194.493C314.063 186.398 311.375 169.103 327.835 167.784C327.835 167.784 335.082 168.092 338.662 170.553" stroke="black" stroke-width="7.24" stroke-miterlimit="10"/>
<path d="M312.21 210.663C312.21 210.663 303.921 215.059 299.813 206.298" stroke="black" stroke-width="7.24" stroke-miterlimit="10"/>
<path d="M295.399 179.609C295.078 182.391 296.165 184.796 297.829 184.991C299.493 185.185 301.101 183.107 301.427 180.306C301.754 177.505 300.655 175.125 298.997 174.93C297.339 174.735 295.719 176.814 295.399 179.609Z" fill="black"/>
<path d="M322.39 181.247C322.07 184.023 323.156 186.434 324.82 186.629C326.485 186.824 328.092 184.745 328.413 181.944C328.733 179.143 327.646 176.757 325.989 176.568C324.331 176.38 322.71 178.452 322.39 181.247Z" fill="black"/>
<path d="M306.012 169.561C306.012 169.561 300.938 161.736 289.439 169.159" stroke="black" stroke-width="7.24" stroke-miterlimit="10"/>
<path d="M314.929 225.496V268.903" stroke="black" stroke-width="7.24" stroke-miterlimit="10"/>
<path d="M143.322 485.243C143.322 485.243 161.214 468.287 184.45 449.447C204.678 433.037 228.937 415.146 248.864 405.776C251.413 404.589 253.888 403.528 256.293 402.636C262.032 400.449 268.192 399.589 274.31 400.124C275.591 400.229 276.866 400.401 278.129 400.639" stroke="black" stroke-width="7.24" stroke-miterlimit="10"/>
<path d="M264.602 458.585C244.951 464.469 232.574 478.361 223.235 497.86C217.024 510.809 211.649 525.699 201.883 536.438C192.394 546.806 181.291 555.906 168.436 561.759C145.112 572.372 116.394 571.556 101.24 548.477C90.9909 532.827 86.9592 513.384 84.9119 495.097C81.3951 463.314 92.4981 373.723 141.017 311.583C156.604 291.594 176.047 274.462 200.125 262.994C217.024 254.969 236.128 249.718 257.781 248.23L263.848 216.937" stroke="black" stroke-width="7.24" stroke-miterlimit="10"/>
<path d="M408.928 574.947V590.634" stroke="black" stroke-width="7.24" stroke-miterlimit="10"/>
<path d="M136.496 569.346V590.635" stroke="black" stroke-width="7.24" stroke-miterlimit="10"/>
<path d="M282.01 199.435C282.069 204.143 280.398 208.709 277.312 212.265C275.582 213.065 273.698 213.479 271.792 213.477C263.333 213.477 256.475 205.502 256.475 195.642C256.414 190.935 258.089 186.37 261.179 182.818C262.908 182.014 264.792 181.598 266.699 181.6C275.158 181.6 282.01 189.582 282.01 199.435Z" fill="#3FBDF1"/>
<path d="M266.712 217.27C275.161 217.27 282.01 209.285 282.01 199.435C282.01 189.585 275.161 181.6 266.712 181.6C258.263 181.6 251.414 189.585 251.414 199.435C251.414 209.285 258.263 217.27 266.712 217.27Z" stroke="black" stroke-width="7.24" stroke-miterlimit="10"/>
<path d="M448.593 43.5718C439.168 40.7622 429.122 40.8105 419.724 43.7106C410.327 46.6107 402.001 52.2323 395.798 59.8645C389.596 67.4968 385.796 76.7969 384.879 86.5887C383.962 96.3804 385.969 106.224 390.647 114.876C395.325 123.526 402.463 130.596 411.159 135.19C419.854 139.785 429.717 141.697 439.5 140.686C449.282 139.675 458.545 135.786 466.117 129.511C473.69 123.235 479.231 114.855 482.04 105.43C485.808 92.7914 484.4 79.1745 478.128 67.5734C471.855 55.9731 461.231 47.3393 448.593 43.5718ZM423.611 127.372C422.697 127.099 421.845 126.649 421.104 126.047C420.364 125.444 419.749 124.702 419.296 123.862C418.841 123.023 418.558 122.102 418.46 121.153C418.362 120.203 418.452 119.243 418.725 118.329C418.998 117.415 419.449 116.562 420.051 115.822C420.653 115.082 421.396 114.467 422.235 114.013C423.931 113.097 425.922 112.892 427.768 113.443C429.615 113.995 431.168 115.257 432.084 116.953C433 118.649 433.206 120.639 432.654 122.486C432.103 124.333 430.841 125.886 429.144 126.802C427.449 127.718 425.458 127.924 423.611 127.372ZM448.731 76.5419C448.626 76.7931 448.526 77.038 448.43 77.2767C444.355 87.3008 439.287 96.8922 433.301 105.907C431.85 108.105 427.304 106.749 427.291 104.111C427.376 95.9144 428.005 87.7322 429.175 79.6191C429.904 73.6908 429.338 63.5423 434.13 58.983C438.382 54.901 446.401 56.6531 450.182 60.5718C454.358 64.9239 450.741 71.7628 448.712 76.5419H448.731Z" fill="#D7E8F0"/>
<path d="M482.995 328.696C479.545 332.204 477.212 336.656 476.293 341.49C475.373 346.324 475.908 351.322 477.829 355.852C479.751 360.381 482.972 364.24 487.086 366.938C491.2 369.637 496.023 371.055 500.942 371.013C505.863 370.971 510.66 369.47 514.728 366.702C518.795 363.933 521.95 360.02 523.793 355.457C525.637 350.896 526.085 345.889 525.083 341.072C524.081 336.255 521.673 331.843 518.163 328.394C513.458 323.773 507.111 321.208 500.516 321.265C493.921 321.321 487.619 323.994 482.995 328.696ZM514.194 359.361C513.518 360.049 512.596 360.44 511.631 360.449C510.666 360.457 509.738 360.081 509.051 359.405C508.363 358.729 507.972 357.807 507.964 356.843C507.955 355.878 508.33 354.95 509.007 354.262C509.341 353.921 509.74 353.65 510.18 353.463C510.619 353.277 511.092 353.179 511.569 353.175C512.047 353.171 512.52 353.261 512.963 353.44C513.406 353.619 513.81 353.883 514.15 354.218C514.49 354.553 514.762 354.951 514.948 355.391C515.135 355.831 515.233 356.303 515.237 356.781C515.241 357.258 515.151 357.732 514.972 358.175C514.793 358.617 514.529 359.021 514.194 359.361ZM497.464 336.47C500.774 340.804 504.372 345.262 506.972 350.06C507.6 351.216 505.936 352.911 504.768 352.296C501.16 350.342 497.688 348.147 494.374 345.727C491.925 344.019 487.303 341.89 486.411 338.706C485.601 335.867 488.251 332.734 490.87 331.98C494.085 331.063 495.793 334.348 497.464 336.47Z" fill="#3FBDF1"/>
<path d="M580.523 129.463C583.001 126.415 584.52 122.699 584.886 118.788C585.253 114.877 584.452 110.944 582.584 107.488C580.715 104.033 577.865 101.208 574.391 99.3722C570.919 97.5365 566.979 96.7716 563.071 97.1748C559.164 97.578 555.463 99.131 552.438 101.637C549.413 104.143 547.198 107.49 546.075 111.255C544.951 115.019 544.97 119.032 546.127 122.786C547.284 126.54 549.53 129.867 552.577 132.345C554.601 133.991 556.93 135.222 559.43 135.968C561.93 136.714 564.553 136.961 567.147 136.692C569.742 136.425 572.259 135.649 574.555 134.408C576.849 133.167 578.878 131.487 580.523 129.463ZM553.412 107.426C553.653 107.13 553.949 106.884 554.285 106.703C554.62 106.521 554.988 106.408 555.367 106.368C555.747 106.329 556.13 106.364 556.495 106.474C556.861 106.582 557.202 106.762 557.498 107.002C557.794 107.243 558.04 107.539 558.221 107.875C558.403 108.21 558.516 108.577 558.556 108.957C558.595 109.337 558.56 109.72 558.45 110.085C558.342 110.451 558.162 110.791 557.922 111.088C557.436 111.685 556.733 112.066 555.967 112.146C555.201 112.225 554.434 111.997 553.836 111.511C553.239 111.026 552.858 110.323 552.778 109.556C552.699 108.79 552.927 108.024 553.412 107.426ZM568.441 124.382C565.483 121.186 562.299 117.933 559.856 114.29C559.265 113.417 560.484 111.948 561.438 112.35C564.463 113.639 567.398 115.129 570.224 116.809C572.296 117.983 576.134 119.321 577.082 121.795C577.936 123.987 576.064 126.681 574.036 127.447C571.53 128.414 569.923 125.933 568.441 124.345V124.382Z" fill="#3FBDF1"/>
<path d="M383.08 260.426C390.089 272.358 389.768 280.855 387.947 294.627C387.219 299.871 392.864 303.419 397.442 300.781C437.892 277.545 475.647 295.92 523.878 284.529C541.587 280.371 563.668 271.755 578.803 257.901C583.825 250.444 586.508 241.659 586.508 232.668C586.508 194.988 535.012 164.398 471.502 164.398C430.802 164.398 395.043 176.958 374.602 195.88C374.602 195.88 374.602 195.88 374.546 195.937C369.358 203.705 366.507 212.196 366.507 221.057C366.476 234.577 376.53 249.235 383.08 260.426Z" fill="#D7E8F0"/>
<path d="M366.658 221.056C366.658 221.37 366.658 221.684 366.658 222.011C366.884 235.199 373.503 247.489 381.34 258.121C386.591 265.23 392.82 273.13 391.345 281.846C390.717 285.69 388.55 289.175 388.01 293.031C387.47 296.887 389.523 301.697 393.417 301.898C395.891 302.024 397.995 300.266 399.954 298.758C411.541 289.778 426.6 286.418 441.245 285.828C455.89 285.238 470.516 287.172 485.168 287.586C506.294 288.214 527.752 285.552 547.264 277.45C564.748 270.203 580.768 258.309 591.287 242.421C601.624 226.821 595.514 204.169 584.486 190.604C574.149 177.875 559.171 169.73 543.81 163.99C502.494 148.566 455.338 148.918 414.593 165.817C402.498 170.841 390.798 177.372 381.73 186.824C372.894 196.03 366.752 208.301 366.658 221.056Z" stroke="black" stroke-width="7.24" stroke-miterlimit="10"/>
<path d="M536.18 236.065C544.941 236.065 552.043 228.963 552.043 220.201C552.043 211.44 544.941 204.338 536.18 204.338C527.419 204.338 520.317 211.44 520.317 220.201C520.317 228.963 527.419 236.065 536.18 236.065Z" fill="white"/>
<path d="M484.873 236.065C493.634 236.065 500.736 228.963 500.736 220.201C500.736 211.44 493.634 204.338 484.873 204.338C476.111 204.338 469.009 211.44 469.009 220.201C469.009 228.963 476.111 236.065 484.873 236.065Z" fill="white"/>
<path d="M432.566 236.065C441.328 236.065 448.43 228.963 448.43 220.201C448.43 211.44 441.328 204.338 432.566 204.338C423.805 204.338 416.703 211.44 416.703 220.201C416.703 228.963 423.805 236.065 432.566 236.065Z" fill="white"/>
</svg>
