<svg width="964" height="734" viewBox="0 0 964 734" fill="none" xmlns="http://www.w3.org/2000/svg">
<path fill-rule="evenodd" clip-rule="evenodd" d="M673.954 587.175C678.494 602.548 675.599 620.486 665.202 633.131C658.487 641.298 642.518 648.601 633.554 640.098C629.546 636.295 627.851 623.278 626.138 617.205C624.563 611.619 621.929 601.274 623.099 596.588C624.803 589.758 638.415 591.337 644.778 590.739C654.541 589.821 664.234 588.427 673.954 587.175ZM802.401 594.984C804.538 599.689 807.948 602.806 809.401 608.028C810.352 611.436 810.924 614.854 811.3 618.354C811.756 622.593 812.067 622.43 809.143 624.412C804.68 627.437 793.265 627.204 787.836 628.08C780.749 629.225 773.697 630.572 766.606 631.713C768.324 625.114 767.424 618.01 769.2 611.28C770.927 604.74 773.933 598.284 778.175 592.912C781.332 588.914 785.923 584.125 791.599 584.1C798.916 584.068 800.071 589.859 802.401 594.984ZM352.443 453.587C353.529 467.735 351.513 482.802 343.467 494.96C340.059 500.109 335.096 502.878 331.068 507.312C326.406 512.442 323.878 518.784 316.513 520.979C311.762 522.397 306.185 521.418 301.245 522.056C293.043 523.116 290.622 521.967 283.706 517.722C278.74 514.672 273.014 515.244 267.777 511.9C261.496 507.891 256.027 502.173 250.078 497.633C283.464 481.278 317.883 467.351 352.443 453.587ZM442.187 461.977C454.964 467.989 461.721 478.244 465.372 491.481C430.128 499.537 395.826 509.393 361.207 520.506C370.874 495.917 381.73 473.401 408.174 461.964C413.45 459.682 418.871 456.049 424.876 456.136C430.856 456.221 436.943 459.51 442.187 461.977ZM763.647 498.429C781.811 507.989 772.578 538.542 766.231 552.106C758.153 546.164 749.684 540.378 741.796 534.592C733.175 528.267 725.423 520.127 717.558 512.923C721.722 510.751 724.429 507.296 728.3 504.815C732.133 502.36 735.935 502.184 740.228 501.224C748.449 499.386 755.102 493.93 763.647 498.429ZM621.905 429.586C623.355 431.445 625.088 433.199 626.453 435.11C629.771 439.75 632.64 444.47 636.487 448.775C643.302 456.404 653.223 466.459 664.388 467.155L664.712 470.412C661.42 470.329 659.472 467.494 656.616 467.205C654.373 466.98 651.234 468.693 648.484 468.451C639.981 467.702 631.627 467.274 622.995 467.503C605.957 467.955 589.21 470.671 572.463 472.836C575.662 461.433 581.633 449.752 591.149 442.124C594.438 439.486 597.59 435.86 601.303 433.758C603.539 432.493 605.906 432.396 608.207 431.408C610.869 430.264 614.288 426.446 617.037 426.08C619.912 425.697 619.924 427.042 621.905 429.586ZM758.434 430.625C767.371 437.799 774.238 446.902 781.588 455.519C788.24 463.318 797.255 474.445 799.62 484.485C787.823 490.035 767.591 484.955 759.981 474.689C750.597 462.029 755.197 444.407 758.434 430.625ZM553.849 389.716C552.089 401.613 546.37 414.87 537.788 423.753C534.087 427.584 530.844 432.579 526.64 435.928C521.149 440.303 516.73 438.061 510.358 438.74C503.514 439.468 499.078 443.934 491.784 442.722C486.589 441.857 481.803 438.981 476.921 438.108C471.587 437.154 466.931 437.719 461.628 435.078C455.069 431.814 449.837 425.389 444.736 420.51C447.421 418.384 452.842 418.232 456.277 417.083C460.813 415.564 465.344 414.06 469.907 412.605C479.328 409.602 488.724 406.534 498.165 403.581C516.147 397.956 535.133 392.614 553.849 389.716Z" fill="#FF5678"/>
<path fill-rule="evenodd" clip-rule="evenodd" d="M835.947 95.9778L835.36 99.9222C841.101 100.912 841.27 97.4448 835.947 95.9778ZM810.965 89.1771C807.887 88.1037 802.853 89.6772 805.273 93.3532C808.689 98.5441 810.245 91.7677 810.965 89.1771ZM562.742 232.923C563.205 232.46 557.75 222.037 557.046 220.288C553.525 222.297 553.286 221.811 554.72 225.171C555.959 228.069 560.27 231.011 562.742 232.923ZM241.071 235.782C239.389 235.635 236.04 234.633 234.613 235.218C232.617 236.035 233.154 237.928 232.913 240.69C238.747 240.419 239.564 241.192 241.071 235.782ZM233.505 230.059C236.357 230.571 239.208 231.083 242.06 231.595C242.67 228.329 244.282 222.927 238.269 224.899C237.703 225.084 234.228 228.996 233.505 230.059ZM569.485 236.775C566.452 239.79 580.531 246.17 581.983 244.126C585.151 239.667 571.533 237.443 569.485 236.775ZM639.131 201.151C640.835 200.984 642.537 200.816 644.24 200.649C643.652 198.164 641.859 189.008 638.133 189.5C634.431 189.987 638.606 199.214 639.131 201.151ZM645.344 216.099C645.392 214.036 646.237 209.46 645.43 207.474C644.881 206.123 642.623 202.021 639.378 204.687C638.688 205.254 638.372 213.515 638.582 213.783C639.466 214.907 644.084 215.667 645.344 216.099ZM627.74 242.596C624.244 239.923 616.644 235.981 613.278 242.024C608.586 250.445 624.707 244.816 627.74 242.596ZM607.758 243.298C603.168 244.158 598.531 244.045 593.884 243.721C588.678 243.356 587.444 241.767 585.928 246.752C591.512 248.776 603.404 250.18 609.053 248.254C608.622 246.602 608.189 244.949 607.758 243.298ZM636.708 220.415C635.101 223.708 631.619 228.021 630.682 231.457C629.992 233.989 629.721 232.724 630.299 234.689C630.505 235.391 633.331 238.326 633.826 239.036C637.257 236.438 641.396 233.784 643.153 229.782C645.967 223.375 642.349 222.861 636.708 220.415ZM558.628 206.93C546.956 210.561 532.622 214.117 520.268 213.036C520.105 214.093 541.22 220.247 543.745 219.803C546.324 219.349 546.53 215.754 549.62 213.835C553.028 211.72 555.843 212.979 559.609 212.649C559.282 210.743 558.955 208.836 558.628 206.93ZM597.047 255.84C586.304 255.152 576.706 252.586 567.203 247.698C561.746 244.891 557.825 240.819 554.177 236.122C551.352 232.483 551.93 232.782 547.493 231.548C544.215 230.638 540.184 231.007 536.818 230.585C525.55 229.167 514.32 225.752 503.602 222.197C491.574 218.209 481.214 212.583 468.002 212.912C445.317 213.476 426.918 230.645 403.254 223.434C393.864 220.573 384.14 216.776 376.546 210.643C366.671 202.667 360.674 197.941 346.759 200.767C335.555 203.041 326.959 208.978 317.36 214.449C306.42 220.686 294.482 224.422 282.283 227.716C277.505 229.006 273.079 229.757 268.072 230.008C265.093 230.158 250.977 228.01 249.233 229.526C247.546 230.993 246.779 241.116 246.959 242.962C247.259 246.045 245.898 246.363 249.192 247.662C251.479 248.564 258.542 247.652 261.377 247.975C284.185 250.58 307.552 251.36 329.995 255.291C351.088 258.984 372.257 261.972 393.113 266.304C420.242 271.939 447.873 274.51 475.017 279.968C488.138 282.605 501.371 286.32 514.338 289.13C526.145 291.687 538.009 294.06 549.885 296.377C549.449 294.746 546.981 288.801 550.921 289.35C553.418 289.696 557.608 298.318 558.925 300.258C564.986 309.188 571.441 315.967 579.687 323.073C587.997 330.236 596.366 337.325 604.801 344.355C611.692 350.098 626.495 358.664 626.113 368.694C621.916 369.492 613.582 362.057 610.44 360.043C604.081 355.964 597.983 351.521 592.054 346.883C586.477 355.045 599.698 364.505 601.199 372.224C597.799 372.238 592.121 362.881 590.057 360.402C584.576 365.51 578.424 370.015 574.478 376.433C618.706 374.545 625.957 429.398 657.882 447.993C664.955 452.111 673.818 453.814 681.904 452.004C690.328 450.121 698.424 447.461 705.836 442.702C722.387 432.074 734.517 411.64 740.994 394.092C744.571 384.401 747.946 375.014 749.565 364.817C751.357 353.525 749.672 342.048 748.212 330.796C745.615 310.747 734.958 290.507 719.865 276.167C713.101 269.74 705.712 264.115 699.518 257.099C697.356 254.65 692.423 245.273 689.711 244.685C684.713 243.602 682.134 250.616 678.675 244.875C675.288 239.256 681.749 237.063 685.682 234.445C689.925 231.619 694.04 228.647 698.187 225.696C706.387 219.862 714.504 214.125 722.38 207.913C760.78 177.625 794.728 143.859 829.118 109.442C822.679 107.919 813.523 103.539 806.977 104.707C800.428 105.877 794.611 110.51 787.707 111.278C780.981 112.026 774.45 110.574 768.214 108.46C760.863 105.967 755.886 102.76 749.718 108.979C739.808 118.973 734.354 132.859 723.952 142.315C713.438 151.872 698.722 157.453 685.033 160.336C672.358 163.004 654.781 161.743 645.494 171.721C643.403 173.966 641.539 175.563 641.419 178.919C641.21 184.885 642.563 180.609 644.48 184.304C647.606 190.319 648.827 197.824 649.532 204.472C650.957 217.927 649.158 232.665 638.378 241.939C626.765 251.926 612.402 256.131 597.047 255.84ZM596.432 234.048C604.295 238.059 620.193 232.831 626.476 227.94C635.026 221.284 635.701 209.699 634.332 200.014C630.356 200.977 626.379 201.939 622.402 202.902C620.707 203.311 619.011 203.722 617.316 204.133C617.471 205.536 617.241 206.845 616.626 208.061C612.88 212.861 611.064 210.476 606.997 206.313C598.29 197.401 590.564 187.355 587.014 175.508C583.037 180.155 578.545 183.151 572.171 182.505C569.378 182.223 558.669 178.889 561.434 174.002C562.312 172.448 571.021 174.405 573.938 174.258C580.031 173.949 582.898 174.067 585.127 168.337C586.984 163.567 586.328 161.606 580.6 160.732C573.328 159.621 573.12 163.939 567.939 165.964C554.782 171.107 563.766 150.629 561.888 144.862C568.355 142.948 575.182 141.618 580.901 137.971C574.565 138.697 568.539 140.814 562.403 142.354C562.925 134.803 577.909 133.195 583.512 130.823C577.458 130.018 571.704 134.003 565.626 133.752C559.948 133.518 551.986 131.132 546.508 129.316C540.875 127.449 536.456 122.244 531.021 126.774C527.459 129.744 522.677 137.834 521.536 142.14C525.081 141.629 533.433 140.939 534.417 144.963C535.683 150.131 525.25 147.123 522.034 147.969C517.152 149.255 518.649 150.673 516.878 155.496C515.134 160.246 512.004 164.046 507.051 166.016C512.557 168.977 514.072 168.924 512.962 174.403C511.872 179.791 512.592 185.843 513.125 191.839C516.401 190.498 519.93 190.065 523.446 189.714C524.131 194.063 517.297 195.904 513.776 196.158C515.624 201.883 515.693 201.702 522.016 201.685C525.557 201.674 529.11 201.471 532.643 201.3C539.835 200.95 546.816 199.667 553.91 198.527C556.618 198.091 560.454 196.612 563.149 196.909C568.09 197.452 567.13 197.986 566.313 202.196C565.207 207.903 566.453 212.223 567.887 218.418C559.43 215.535 566.222 224.356 570.213 226.171C578.072 229.745 587.692 233.571 596.432 234.048ZM133.939 578.992C139.925 581.979 145.58 584.793 151.034 588.614C156.46 592.416 162.248 598.809 169.117 600.037C177.334 601.506 179.312 597.243 181.345 590.947C183.63 583.866 185.721 580.652 192.216 576.768C203.709 569.895 217.172 565.366 229.732 560.419C234.537 558.528 234.898 558.89 233.477 554.022C232.618 551.083 231.571 548.196 230.446 545.341C228.366 540.074 226.089 534.495 222.609 529.899C202.692 542.975 178.937 558.133 154.418 561.277C144.463 562.555 134.651 564.794 124.887 565.643C120.052 566.063 116.09 567.288 111.832 569.366C107.063 571.693 99.1748 572.513 95.7404 576.339C108.633 576.252 121.191 577.898 133.939 578.992ZM622.407 596.131C618.415 597.775 623.806 607.206 624.957 611.134C626.687 617.033 628.323 622.957 630.068 628.853C633.763 641.335 637.244 653.869 640.749 666.4C663.85 653.863 688.569 646.688 714.225 640.69C739.786 634.714 765.895 630.461 792.012 626.372C806.284 624.134 821.254 621.082 834.469 615.267C842.686 611.652 841.079 608.315 840.946 600.31C840.819 592.796 839.637 585.136 838.486 577.695C836.31 563.638 834.011 548.31 828.333 535.102C822.8 522.232 815.397 509.857 808.28 497.735C799.833 483.351 792.64 467.861 781.618 455.091C770.132 441.783 757.807 429.712 745.349 417.322C737.892 431.464 727.251 448.616 713.497 457.518C698.365 467.309 674.561 472.344 657.353 464.148C640.021 455.893 629.776 438.961 618.985 424.207C608.583 409.986 599.546 394.604 581.113 389.531C561.618 384.164 541.091 391.468 522.084 396.045C500.413 401.263 479.208 408.749 458.144 415.82C421.575 428.099 385.295 439.337 349.65 453.97C305.777 471.98 261.847 489.848 219.443 510.932C228.617 524.05 235.728 536.002 240.909 551.09C244.945 562.836 247.41 575.275 248.353 587.979C253.289 583.068 257.06 577.227 262.041 572.257C267.676 566.634 274.292 562.306 280.921 557.898C292.922 549.918 305.221 542.693 318.458 536.624C348.503 522.847 380.429 513.358 412.195 503.539C419.392 501.315 427.862 498.73 435.321 497.498C441.659 496.453 447.289 494.615 453.741 493.09C468.372 489.633 483.166 486.461 497.924 483.957C526.278 479.147 555.211 474.02 583.96 470.694C603.453 468.439 623.796 464.782 643.824 466.735C647.209 467.066 650.523 467.733 653.932 467.628C654.882 467.599 656.012 466.193 656.996 466.289C658.888 466.476 660.914 468.592 662.844 469.223C667.202 470.647 673.532 469.763 675.905 473.351C677.807 476.225 677.111 478.501 674.279 480.395C677.687 484.722 684.355 488.71 688.923 492.113C693.028 495.172 696.9 498.463 701.04 501.412C705.488 504.58 710.877 507.571 715.535 510.804C721.611 515.02 726.802 520.422 732.541 525.153C742.841 533.643 753.178 541.038 764.032 548.997C769.877 553.284 775.449 557.32 781.8 560.827C785.272 562.745 793.142 567.997 789.034 572.767C784.935 577.526 776.715 570.489 772.238 569.983C767.084 569.399 760.134 572.617 754.994 573.373C741.391 575.371 727.746 577.128 714.139 579.287C698.608 581.752 683.238 585.079 667.634 587.127C659.576 588.184 651.518 589.205 643.416 589.934C639.237 590.31 633.33 589.746 629.404 591.079C626.432 590.215 625.139 591.059 625.525 593.611C624.797 594.803 623.758 595.642 622.407 596.131ZM192.021 240.721C200.519 240.666 208.949 241.156 217.456 241.083C220.731 241.054 223.551 241.716 224.876 239.454C226.496 236.69 225.749 229.471 226.026 226.307C216.092 227.102 206.975 227.349 197.058 226.481C186.436 225.551 176.125 222.521 165.463 221.865C167.735 222.726 170.336 227.418 168.854 229.7C167.379 231.972 164.969 229.921 162.633 228.892C153.613 224.92 146.101 219.051 135.968 221.617C145.297 226.428 154.149 234.143 163.891 237.016C173.078 239.725 182.345 240.648 192.021 240.721ZM823.171 84.3037C827.307 85.076 835.377 89.2037 839.087 87.1242C843.618 84.5842 842.666 74.2847 842.831 70.2757C843.337 57.9549 844.275 41.0015 834.584 31.0142C832.826 42.8531 836.626 55.2327 836.355 67.2034C836.149 76.1862 832.756 71.2808 831.555 64.9229C830.457 59.1064 830.577 53.3688 829.08 47.582C826.331 52.268 825.691 58.6275 823.752 63.8012C821.307 70.3252 817.847 76.2431 814.361 82.2907C817.308 82.9311 820.239 83.6072 823.171 84.3037ZM232.372 246.197C232.321 249.647 231.829 252.889 236.148 253.207C241.866 253.625 239.991 247.8 239.628 244.124C237.572 244.402 232.86 243.829 232.372 246.197ZM820.781 89.9334C817.196 89.4903 816.651 88.68 814.378 91.1857C812.934 92.7757 812.794 95.6607 814.047 96.6616C819.479 101.007 820.336 92.3724 820.781 89.9334ZM824.133 97.9328C826.923 98.481 829.654 99.9662 831.222 97.2003C833.521 93.1441 828.026 92.8048 825.015 91.6005C824.721 93.7108 824.428 95.8221 824.133 97.9328ZM648.803 479.582C617.952 478.853 587.56 483.687 557.278 489.008C530.493 493.713 503.905 497.635 477.708 503.54C424.914 515.442 372.031 528.761 323.028 551.67C311.123 557.236 299.234 562.798 288.26 569.568C282.363 573.206 276.355 576.802 270.771 580.905C267.699 583.161 264.521 585.388 261.641 587.86C259.003 590.126 257.507 593.251 255.137 595.466C254.022 596.51 249.216 600.365 247.791 600.799C244.729 601.731 245.942 601.805 242.846 599.689C236.377 595.267 235.08 589.373 233.129 582.282C231.757 577.29 232.81 575.636 228.301 575.806C226.007 575.893 222.554 578.224 220.428 579.107C213.56 581.958 206.139 584.229 199.548 587.63C194.219 590.379 189.956 593.914 187.673 599.358C184.978 605.786 183.412 611.034 175.234 611.755C160.648 613.041 152.268 598.5 139.795 593.608C126.456 588.373 109.431 589.404 95.3469 589.236C90.2172 589.173 84.6309 589.667 79.7382 590.359C72.8245 591.336 64.6451 595.09 57.4694 592.703C49.2112 589.957 49.3354 578.225 54.8073 573.12C60.5287 567.783 69.018 567.051 76.3358 565.279C91.1293 561.699 104.584 553.537 119.685 551.03C134.706 548.536 150.621 547.993 165.264 543.449C172.726 541.132 179.976 539.325 187.067 536.066C195.9 532.005 205.415 529.364 214.14 525.372C211.138 520.098 210.325 515.204 210.142 509.295C210.02 505.351 209.378 505.348 212.117 503.696C212.659 503.977 213.201 504.257 213.744 504.54C215.464 505.762 216.69 505.204 217.423 502.865C229.533 495.519 240.727 487.629 253.649 481.249C275.323 470.547 298.267 461.903 319.934 451.709C361.098 432.344 406.947 421.17 450.253 406.984C476.45 398.401 503.274 391.371 530.117 385.042C534.821 383.932 539.512 383.013 544.295 382.277C552.397 381.029 550.481 380.955 554.568 374.723C559.811 366.726 568.134 358.194 576.582 353.24C581.792 350.183 584.014 350.642 583.851 343.956C583.728 338.847 582.326 338.898 578.147 335.478C573.422 331.608 569.032 327.315 565.042 322.752C560.486 317.544 558.446 311.642 554.635 306.29C550.028 299.82 535.779 300.918 527.803 299.791C515.311 298.028 502.611 296.767 490.306 294.043C465.456 288.543 440.476 286.62 415.316 282.775C390.025 278.91 364.741 275.385 339.448 271.884C330.368 270.627 321.171 269.547 312.141 267.989C299.5 265.807 286.196 265.586 273.371 263.545C266.767 262.495 258.68 258.765 252.037 259.083C244.907 259.426 251.283 259.345 246.593 261.796C244.488 262.898 242.054 263.882 239.628 264.009C235.807 264.21 231.956 262.574 229.619 259.657C225.723 254.796 227.601 251.071 219.662 250.458C214.435 250.055 208.335 252.071 203.023 252.336C197.819 252.597 192.408 253.352 187.202 253.199C176.79 252.891 164.382 251.976 154.928 247.527C144.908 242.811 135.966 236.521 125.426 232.512C120.137 230.499 112.612 229.645 109.067 224.779C106.106 220.717 105.191 212.454 109.729 209.123C116.692 204.013 130.191 211.746 137.895 209.814C141.833 208.827 138.582 207.638 141.561 206.262C143.406 205.409 143.129 205.281 145.319 204.972C150.719 204.207 159.562 207.988 165.05 208.887C175.882 210.657 186.619 213.359 197.441 215.014C203.62 215.959 209.903 216.196 216.096 217.201C221.489 218.077 225.921 220.189 229.835 215.858C231.486 214.031 230.981 212.148 233.627 211.195C235.999 210.342 242.814 211.566 245.106 212.445C247.609 213.405 248.169 214.789 250.183 215.882C250.234 217.953 251.104 218.573 252.795 217.74C254.369 217.621 255.938 217.705 257.5 217.991C271.247 218.048 284.93 213.783 297.433 208.746C318.152 200.4 343.878 176.774 367.643 189.625C373.49 192.786 377.328 198.059 383.021 201.485C388.078 204.526 394.546 207.251 400.233 208.966C411.596 212.394 422.892 211.965 434.148 208.416C447.874 204.087 458.928 199.553 473.72 200.051C487.426 200.511 498.363 209.972 511.788 210.349C508.508 205.082 507.901 199.032 507.554 193.057C507.328 189.148 509.51 178.92 507.145 175.756C504.535 172.263 484.15 170.85 495.519 160.595C499.24 157.236 506.109 158.452 509.957 154.744C513.841 151.002 513.918 145.149 515.989 140.477C518.333 135.19 522.197 130.824 526.159 126.605C527.836 124.819 528.969 123.686 529.924 121.539C531.033 119.047 530.294 116.942 532.065 114.316C538.046 105.455 548.478 108.54 557.557 109.72C563.061 110.437 569.728 109.754 575.069 111.256C579.362 112.463 584.946 116.123 588.438 118.81C596.133 124.727 597.921 135.646 598.514 144.593C598.862 149.831 597.842 154.767 597.758 159.986C597.669 165.449 595.298 167.925 591.032 171.548C590.953 170.54 590.46 169.864 589.552 169.519C587.694 171.804 588.171 172.696 590.982 172.196C591.089 173.563 591.577 174.79 592.444 175.881C594.768 178.461 596.77 181.313 599.032 183.944C603.983 189.698 609.759 194.691 613.568 201.221C617.563 196.573 622.646 195.811 627.411 192.606C632.046 189.488 628.585 188.559 630.304 184.052C630.994 182.246 632.805 181.927 633.441 180.529C634.044 179.203 633.31 178.367 633.681 176.91C635.536 169.678 634.766 165.198 640.543 159.529C648.268 151.946 657.789 149.942 668.41 148.502C679.007 147.065 686.531 146.553 695.952 142.367C699.219 140.914 702.31 140.251 705.415 138.604C709.61 136.375 713.518 134.024 717.164 131.017C725.638 124.027 730.908 114.289 737.76 105.891C743.246 99.1696 749.86 90.5646 759.761 92.3394C771.022 94.3588 780.944 101.202 792.931 97.5126C797.378 96.1439 796.898 96.9854 798.662 92.674C799.248 91.2382 799.627 89.7916 800.197 88.3802C802.335 83.0973 806.428 82.4359 808.967 78.1346C814.959 67.9805 818.242 55.3175 821.654 44.1735C823.24 38.9984 826.31 34.5098 828.182 29.5475C828.964 27.4725 828.61 18.2309 831.04 17.4203C838.878 14.8082 845.222 35.3352 846.651 39.2176C850.387 49.3631 853.677 60.8125 852.202 71.6751C851.596 76.1511 851.113 81.3365 849.915 85.7192C848.826 89.6982 848.591 89.4364 849.214 93.0429C849.846 96.7103 850.599 98.9099 850.056 102.754C849.904 103.828 849.415 107.795 848.953 108.344C846.805 110.899 846.514 109.113 843.841 110.134C839.518 111.786 838.449 113.205 835.389 117.079C827.736 126.763 819.748 136.476 811.478 145.67C796.969 161.797 781.714 176.254 765.429 190.597C749.445 204.675 732.735 218.957 714.593 230.457C710.184 233.252 702.936 235.704 699.388 239.37C695.502 243.386 701.394 245.128 705.377 247.977C713.294 253.635 721.434 259.429 728.337 266.027C743.054 280.09 751.46 300.811 756.615 319.629C759.299 329.422 759.849 340.648 760.865 350.79C762.056 362.686 760.582 375.705 756.829 387.022C755.406 391.314 753.731 395.518 752.351 399.828C751.715 401.813 748.593 407.976 749.44 410.266C750.84 414.05 760.037 418.647 763.249 421.277C767.639 424.875 772.131 428.592 775.809 432.879C791.459 451.114 804.257 470.251 815.754 491.229C827.446 512.567 838.482 531.819 843.095 555.8C844.3 562.067 845.373 568.34 846.64 574.597C848.002 581.329 846.685 591.042 849.411 597.192C851.095 600.997 854.25 602.195 852.965 607.456C851.854 612.004 846.209 620.079 843.141 623.661C836.154 631.817 823.399 635.029 813.329 637.985C801.107 641.573 788.034 643.227 775.448 645.268C730.113 652.619 685.682 660.65 643.719 679.491C645.131 681.55 646.27 685.995 643.405 687.413C639.599 689.295 637.731 683.705 636.422 681.234C632.611 674.045 631.475 664.747 629.198 656.869C623.645 637.65 619.429 618.232 614.907 598.804C599.474 602.052 583.849 603.778 568.497 606.79C561.416 608.18 554.241 608.309 547.11 609.186C539.453 610.127 538.963 612.537 539.568 619.844C540.9 635.955 547.333 651.412 551.002 667.079C552.783 674.678 555.899 681.914 557.593 689.476C558.144 691.939 557.546 698.567 559.283 700.405C559.208 700.326 565.13 701.501 566.064 701.737C565.561 692.22 566.675 682.882 566.199 673.383C565.71 663.568 564.369 650.699 566.562 641.193C568.558 632.55 576.169 623.412 584.571 619.766C591.89 616.587 606.417 611.49 614.319 616.201C615.708 617.029 619.052 619.597 618.272 621.587C617.218 624.275 605.521 626.336 603.146 627.168C593.847 630.426 584.014 636.136 578.806 644.413C574.119 651.862 575.992 663.374 576.148 671.915C576.236 676.769 576.864 681.278 576.277 686.115C575.446 692.96 575.012 695.438 577.811 701.347C581.091 708.271 579.064 718.388 569.239 715.898C563.363 714.409 563.128 711.204 559.589 707.715C558.251 706.395 556.746 706.979 555.435 705.315C553.677 703.083 553.686 698.144 552.797 695.327C549.951 686.31 545.921 677.543 542.911 668.471C538.863 656.273 535.55 643.925 532.648 631.438C530.394 621.728 527.949 611.897 532.636 602.448C536.796 594.061 546.987 594.684 555.437 594.382C575.004 593.685 595.229 589.443 615.195 588.419C616.631 588.344 619.628 588.836 620.917 588.237C622.696 587.411 623.368 585.007 625.671 583.472C630.071 580.535 638.775 579.514 643.861 578.612C655.393 576.565 666.866 574.902 678.329 572.767C691.509 570.312 704.567 567.378 717.762 565.146C730.394 563.008 743.153 562.606 755.935 561.153C735.656 548.074 717.796 532.13 698.285 517.959C689.236 511.388 680.853 504.924 672.733 497.326C669.351 494.163 666.006 491.087 662.936 487.639C661.308 485.811 659.871 482.318 657.801 481.043C655.199 479.439 652.233 479.868 648.803 479.582Z" fill="white"/>
<path fill-rule="evenodd" clip-rule="evenodd" d="M574.368 111.351C567.66 110.766 559.972 110.724 553.462 109.231C559.213 109.728 569.103 109.405 574.368 111.351Z" fill="white"/>
<path fill-rule="evenodd" clip-rule="evenodd" d="M205.675 216.169C202.82 215.918 199.965 215.666 197.112 215.414C200.026 214.99 202.874 215.31 205.675 216.169Z" fill="white"/>
<path fill-rule="evenodd" clip-rule="evenodd" d="M381.441 278.283C383.348 278.447 385.254 278.611 387.149 278.777C385.238 278.613 383.339 278.448 381.441 278.283Z" fill="white"/>
<path fill-rule="evenodd" clip-rule="evenodd" d="M575.77 672.54C575.854 670.309 575.938 668.078 576.022 665.852C575.938 668.084 575.854 670.312 575.77 672.54Z" fill="white"/>
<path fill-rule="evenodd" clip-rule="evenodd" d="M565.302 689.841C565.268 691.437 565.236 693.034 565.201 694.626C565.235 693.027 565.268 691.434 565.302 689.841Z" fill="white"/>
<path fill-rule="evenodd" clip-rule="evenodd" d="M335.076 271.273C336.344 271.433 337.611 271.594 338.869 271.755C337.597 271.594 336.337 271.433 335.076 271.273Z" fill="white"/>
<path fill-rule="evenodd" clip-rule="evenodd" d="M549.655 108.912C548.067 108.78 546.481 108.647 544.896 108.515C546.482 108.647 548.068 108.78 549.655 108.912Z" fill="white"/>
<path fill-rule="evenodd" clip-rule="evenodd" d="M565.581 664.938C565.537 666.534 565.49 668.13 565.445 669.72C565.49 668.123 565.537 666.53 565.581 664.938Z" fill="white"/>
<path fill-rule="evenodd" clip-rule="evenodd" d="M327.46 270.657C328.731 270.785 330.002 270.914 331.262 271.039C329.986 270.91 328.723 270.783 327.46 270.657Z" fill="white"/>
<path fill-rule="evenodd" clip-rule="evenodd" d="M347.356 273.37C348.629 273.489 349.9 273.607 351.16 273.723C349.883 273.605 348.619 273.488 347.356 273.37Z" fill="white"/>
<path fill-rule="evenodd" clip-rule="evenodd" d="M555.125 594.292C553.527 594.301 551.928 594.311 550.329 594.32C551.929 594.311 553.528 594.3 555.125 594.292Z" fill="white"/>
<path fill-rule="evenodd" clip-rule="evenodd" d="M499.704 296.303C500.659 296.382 501.614 296.459 502.56 296.539C501.601 296.462 500.652 296.383 499.704 296.303Z" fill="white"/>
<path fill-rule="evenodd" clip-rule="evenodd" d="M566.208 681.292C566.098 682.562 565.986 683.832 565.878 685.097C565.988 683.825 566.098 682.558 566.208 681.292Z" fill="white"/>
<path fill-rule="evenodd" clip-rule="evenodd" d="M648.536 479.976C649.492 480.056 650.447 480.134 651.391 480.216C650.433 480.138 649.484 480.057 648.536 479.976Z" fill="white"/>
<path fill-rule="evenodd" clip-rule="evenodd" d="M167.004 208.897C165.746 208.66 164.489 208.424 163.231 208.187C164.488 208.424 165.746 208.66 167.004 208.897Z" fill="white"/>
<path fill-rule="evenodd" clip-rule="evenodd" d="M635.136 479.718C635.771 479.8 636.406 479.884 637.033 479.963C636.395 479.881 635.766 479.799 635.136 479.718Z" fill="white"/>
<path fill-rule="evenodd" clip-rule="evenodd" d="M503.622 174.818C504.255 174.915 504.889 175.012 505.514 175.111C504.878 175.012 504.25 174.915 503.622 174.818Z" fill="white"/>
<path fill-rule="evenodd" clip-rule="evenodd" d="M759.896 374.187C759.979 373.235 760.061 372.283 760.145 371.333C760.063 372.286 759.979 373.237 759.896 374.187Z" fill="white"/>
<path fill-rule="evenodd" clip-rule="evenodd" d="M532.922 300.164C533.56 300.218 534.197 300.272 534.825 300.326C534.184 300.271 533.554 300.217 532.922 300.164Z" fill="white"/>
<path fill-rule="evenodd" clip-rule="evenodd" d="M273.391 264.052C274.03 264.095 274.667 264.138 275.296 264.181C274.656 264.139 274.024 264.095 273.391 264.052Z" fill="white"/>
<path fill-rule="evenodd" clip-rule="evenodd" d="M173.984 238.692C176.931 238.952 179.676 239.054 182.503 239.954C179.734 239.743 176.458 240.063 173.984 238.692Z" fill="white"/>
<path fill-rule="evenodd" clip-rule="evenodd" d="M204.54 240.102C206.598 239.506 210.037 239.758 212.161 240.659C209.621 240.472 207.08 240.287 204.54 240.102Z" fill="white"/>
<path fill-rule="evenodd" clip-rule="evenodd" d="M596.195 234.453C598.415 234.639 600.637 234.827 602.856 235.013C600.575 235.557 598.338 235.572 596.195 234.453Z" fill="white"/>
<path fill-rule="evenodd" clip-rule="evenodd" d="M820.747 89.5907C819.163 89.3898 817.579 89.1889 816.006 88.9871C817.593 89.1882 819.17 89.3894 820.747 89.5907Z" fill="white"/>
<path fill-rule="evenodd" clip-rule="evenodd" d="M127.95 578.566C129.949 577.631 131.81 578.282 133.66 579.056C131.755 578.892 129.854 578.73 127.95 578.566Z" fill="white"/>
<path fill-rule="evenodd" clip-rule="evenodd" d="M247.034 240.156C247.004 241.753 246.975 243.351 246.944 244.942C246.974 243.344 247.005 241.75 247.034 240.156Z" fill="white"/>
<path fill-rule="evenodd" clip-rule="evenodd" d="M187.255 240.416C188.853 240.411 190.453 240.407 192.05 240.402C190.452 240.407 188.853 240.411 187.255 240.416Z" fill="white"/>
<path fill-rule="evenodd" clip-rule="evenodd" d="M597.196 255.888C595.92 255.805 594.645 255.725 593.382 255.641C594.661 255.722 595.928 255.804 597.196 255.888Z" fill="white"/>
<path fill-rule="evenodd" clip-rule="evenodd" d="M244.012 559.148C244.01 560.747 244.006 562.344 244.004 563.94C244.006 562.341 244.009 560.745 244.012 559.148Z" fill="white"/>
<path fill-rule="evenodd" clip-rule="evenodd" d="M519.42 290.122C520.992 290.414 522.566 290.703 524.137 290.994C522.563 290.703 520.991 290.413 519.42 290.122Z" fill="white"/>
<path fill-rule="evenodd" clip-rule="evenodd" d="M194.238 226.364C192.962 226.294 191.685 226.226 190.42 226.161C191.7 226.231 192.969 226.297 194.238 226.364Z" fill="white"/>
<path fill-rule="evenodd" clip-rule="evenodd" d="M509.048 288.138C510.621 288.427 512.192 288.715 513.766 289.003C512.156 288.928 510.45 289.434 509.048 288.138Z" fill="white"/>
<path fill-rule="evenodd" clip-rule="evenodd" d="M209.459 227.714C208.501 227.662 207.544 227.61 206.596 227.558C207.556 227.609 208.508 227.661 209.459 227.714Z" fill="white"/>
<path fill-rule="evenodd" clip-rule="evenodd" d="M483.682 282.194C485.253 282.489 486.825 282.786 488.398 283.081C486.824 282.785 485.253 282.489 483.682 282.194Z" fill="white"/>
<path fill-rule="evenodd" clip-rule="evenodd" d="M823.833 98.1497C825.405 98.4505 826.977 98.7514 828.548 99.0522C826.976 98.7514 825.405 98.4505 823.833 98.1497Z" fill="white"/>
<path fill-rule="evenodd" clip-rule="evenodd" d="M426.042 272.568C427.625 272.725 429.211 272.882 430.794 273.038C429.21 272.881 427.625 272.725 426.042 272.568Z" fill="white"/>
<path fill-rule="evenodd" clip-rule="evenodd" d="M823.095 84.6768C824.667 84.9687 826.24 85.2597 827.812 85.5516C826.239 85.2596 824.667 84.9687 823.095 84.6768Z" fill="white"/>
<path fill-rule="evenodd" clip-rule="evenodd" d="M247.072 247.082C248.661 247.19 250.25 247.297 251.837 247.404C250.19 248.242 248.606 248.045 247.072 247.082Z" fill="white"/>
<path fill-rule="evenodd" clip-rule="evenodd" d="M561.803 150.731C561.923 149.461 562.041 148.191 562.158 146.927C562.04 148.199 561.922 149.465 561.803 150.731Z" fill="white"/>
<path fill-rule="evenodd" clip-rule="evenodd" d="M561.389 155.488C561.506 154.217 561.623 152.948 561.741 151.684C561.624 152.956 561.506 154.221 561.389 155.488Z" fill="white"/>
<path fill-rule="evenodd" clip-rule="evenodd" d="M566.512 387.436C565.555 387.374 564.598 387.312 563.652 387.251C564.613 387.313 565.562 387.374 566.512 387.436Z" fill="white"/>
<path fill-rule="evenodd" clip-rule="evenodd" d="M649.663 210.188C649.517 211.455 649.37 212.722 649.224 213.984C649.371 212.716 649.517 211.451 649.663 210.188Z" fill="white"/>
<path fill-rule="evenodd" clip-rule="evenodd" d="M670.125 452.376C671.724 452.359 673.325 452.34 674.924 452.323C673.323 452.34 671.723 452.359 670.125 452.376Z" fill="white"/>
<path fill-rule="evenodd" clip-rule="evenodd" d="M563.067 196.691C564.405 196 565.676 196.072 566.873 197.019C565.602 196.91 564.335 196.8 563.067 196.691Z" fill="white"/>
<path fill-rule="evenodd" clip-rule="evenodd" d="M573.851 183.009C573.217 182.91 572.584 182.81 571.96 182.711C572.596 182.811 573.223 182.91 573.851 183.009Z" fill="white"/>
<path fill-rule="evenodd" clip-rule="evenodd" d="M579.979 375.963C581.235 376.22 582.491 376.477 583.747 376.733C582.49 376.476 581.235 376.22 579.979 375.963Z" fill="white"/>
<path fill-rule="evenodd" clip-rule="evenodd" d="M536.617 477.103C537.897 477.073 539.177 477.044 540.459 477.015C539.177 477.043 537.898 477.074 536.617 477.103Z" fill="white"/>
<path fill-rule="evenodd" clip-rule="evenodd" d="M509.309 482.394C510.591 482.358 511.871 482.32 513.154 482.285C511.872 482.32 510.592 482.358 509.309 482.394Z" fill="white"/>
<path fill-rule="evenodd" clip-rule="evenodd" d="M497.638 484.291C498.922 484.227 500.207 484.164 501.49 484.1L497.638 484.291Z" fill="white"/>
<path fill-rule="evenodd" clip-rule="evenodd" d="M485.973 486.133L489.822 485.968C488.538 486.023 487.255 486.077 485.973 486.133Z" fill="white"/>
<path fill-rule="evenodd" clip-rule="evenodd" d="M732.055 577.34C731.096 577.296 730.137 577.25 729.191 577.205C730.154 577.251 731.104 577.296 732.055 577.34Z" fill="white"/>
<path fill-rule="evenodd" clip-rule="evenodd" d="M772.924 110.209C772.285 110.173 771.646 110.138 771.016 110.102C771.657 110.14 772.29 110.174 772.924 110.209Z" fill="white"/>
<path fill-rule="evenodd" clip-rule="evenodd" d="M204.695 227.37C204.06 227.296 203.424 227.225 202.797 227.153C203.435 227.225 204.064 227.297 204.695 227.37Z" fill="white"/>
<path fill-rule="evenodd" clip-rule="evenodd" d="M473.381 279.39C474.637 279.649 475.893 279.907 477.148 280.165C475.892 279.907 474.637 279.649 473.381 279.39Z" fill="white"/>
<path fill-rule="evenodd" clip-rule="evenodd" d="M329.758 255.358C331.015 255.591 332.273 255.825 333.531 256.058C332.273 255.825 331.014 255.59 329.758 255.358Z" fill="white"/>
<path fill-rule="evenodd" clip-rule="evenodd" d="M232.141 246.523C232.137 247.483 232.133 248.443 232.128 249.398C232.133 248.437 232.137 247.48 232.141 246.523Z" fill="white"/>
<path fill-rule="evenodd" clip-rule="evenodd" d="M218.818 241.269C220.1 241.231 221.381 241.193 222.664 241.154C221.382 241.194 220.1 241.231 218.818 241.269Z" fill="white"/>
<path fill-rule="evenodd" clip-rule="evenodd" d="M253.765 247.293C255.085 246.753 256.381 246.523 257.573 247.595C256.303 247.494 255.033 247.394 253.765 247.293Z" fill="white"/>
<path fill-rule="evenodd" clip-rule="evenodd" d="M693.655 324.413C698.253 325.123 700.429 326.16 701.673 330.619C702.249 332.686 700.586 336.575 701.146 337.88C701.892 339.612 703.006 338.695 704.307 340.336C709.059 346.339 711.539 358.291 702.261 362.434C698.784 358.202 699.994 353.288 702.376 348.915C697.366 347.759 694.768 347.585 693.221 342.569C693.036 341.968 692.659 334.6 692.507 334.441C691.47 333.36 687.276 334.451 685.838 333.645C682.663 331.861 681.163 325.892 681.963 322.534C683.064 317.903 687.959 315.537 691.68 312.939C679.741 313.232 668.765 322.247 656.826 322.851C653.507 323.018 652.673 324.496 651.52 320.751C650.498 317.424 651.604 317.856 653.857 316.203C658.321 312.927 665.168 310.768 670.44 308.9C678.095 306.186 691.298 299.829 699.589 303.384C703.725 305.156 706.662 310.595 705.393 314.845C704.156 318.99 697.014 321.92 693.655 324.413Z" fill="white"/>
<path fill-rule="evenodd" clip-rule="evenodd" d="M698.434 262.691C701.85 268.016 703.351 273.64 699.655 279.261C704.909 278.831 710.759 277.871 714.183 282.627C719.132 289.5 714.017 291.752 708.248 292.143C703.616 292.458 694.423 295.449 690.363 292.326C683.689 287.192 690.33 277.475 692.901 272.558C688.662 272.692 677.96 273.944 679.806 266.008C681.137 260.288 694.271 261.736 698.434 262.691Z" fill="white"/>
<path fill-rule="evenodd" clip-rule="evenodd" d="M643.738 297.183L639.602 302.053C641.696 302.521 644.54 300.745 646.386 299.997C645.503 299.059 644.621 298.121 643.738 297.183ZM637.454 290.624C632.539 289.934 627.234 296.356 626.103 289.18C625.441 284.974 629.379 279.588 634.009 278.941C642.085 277.813 653.376 296.126 655.394 302.438C657.256 308.255 655.272 307.452 651 309.607C647.302 311.472 642.493 315.802 637.692 314.491C633.302 313.292 631.947 306.26 631.967 302.596C631.998 296.947 635.394 295.129 637.454 290.624Z" fill="white"/>
<path fill-rule="evenodd" clip-rule="evenodd" d="M662.473 290.602C663.215 292.872 668.579 303.488 663.821 303.462C661.174 303.448 656.184 288.129 655.471 286.377C654.493 283.972 652.433 280.656 652.796 277.932C653.423 273.22 653.159 274.707 656.353 275.22C662.576 276.221 667.721 285.693 673.602 288.095C671.165 279.051 667.512 269.138 670.013 259.905C677.019 266.379 677.323 279.716 679.242 288.575C679.826 291.271 681.217 296.794 678.267 298.622C674.927 300.69 664.727 292.036 662.473 290.602Z" fill="white"/>
<path fill-rule="evenodd" clip-rule="evenodd" d="M617.765 310.103C620.087 305.23 622.584 299.527 614.008 301.331C615.26 304.255 616.513 307.179 617.765 310.103ZM614.987 289.715C622.343 289.131 626.529 298.784 627.29 304.395C627.898 308.869 623.242 324.487 616.962 319.773C614.622 318.016 613.307 313.215 611.776 310.787C609.678 307.463 606.744 304.294 605.151 300.719C601.782 293.147 607.824 289.735 614.987 289.715Z" fill="white"/>
<path fill-rule="evenodd" clip-rule="evenodd" d="M615.314 289.871C613.714 289.892 612.114 289.914 610.515 289.935C612.115 289.914 613.716 289.892 615.314 289.871Z" fill="white"/>
<path fill-rule="evenodd" clip-rule="evenodd" d="M699.14 263.199C697.887 262.912 696.634 262.625 695.38 262.338C696.633 262.625 697.886 262.911 699.14 263.199Z" fill="white"/>
<path fill-rule="evenodd" clip-rule="evenodd" d="M709.221 279.46C707.953 279.345 706.685 279.231 705.417 279.116C706.758 278.423 708.025 278.549 709.221 279.46Z" fill="white"/>
<path fill-rule="evenodd" clip-rule="evenodd" d="M533.195 154.939C539.392 159.386 525.675 176.046 520.241 162.539C518.724 158.769 519.197 154.088 523.198 155.066C524.999 155.505 525.247 158.221 527.747 158.323C530.227 158.425 531.445 156.294 533.195 154.939Z" fill="white"/>
<path fill-rule="evenodd" clip-rule="evenodd" d="M569.194 170.551C569.291 167.22 575.689 160.603 579.336 164.976C582.994 169.364 571.961 170.448 569.194 170.551Z" fill="white"/>
</svg>
