<svg width="883" height="662" viewBox="0 0 883 662" fill="none" xmlns="http://www.w3.org/2000/svg">
<path fill-rule="evenodd" clip-rule="evenodd" d="M527.731 189.271C537.036 184.048 542.469 174.685 547.847 165.417C548.656 164.024 549.463 162.632 550.282 161.257C550.831 160.337 551.43 159.388 552.041 158.421V158.42C553.656 155.864 555.351 153.179 556.408 150.55C556.871 149.4 557.271 147.713 557.675 146.008C558.152 143.997 558.634 141.961 559.232 140.755C560.539 138.121 570.462 136.922 577.22 136.106C579.452 135.836 581.339 135.608 582.456 135.383C594.334 133.001 608.531 131.572 618.238 140.867C620.545 143.077 623.129 145.114 625.723 147.159C628.831 149.61 631.953 152.071 634.624 154.849C638.914 159.31 644.691 166.816 646.729 172.776C636.272 174.791 618.898 180.961 614.734 191.93C599.407 177.866 592.937 201.291 589.542 213.583C589.335 214.333 589.14 215.042 588.954 215.698C580.606 212.088 581.04 201.1 581.358 193.054V193.053C581.403 191.926 581.445 190.857 581.461 189.873C581.483 188.415 581.704 186.895 581.92 185.413C582.645 180.443 583.308 175.893 576.206 175.492C569.315 175.105 562.623 177.91 556.408 180.537C548.654 183.815 540.519 188.718 534.256 194.35L527.731 189.271ZM512.669 167.361C512.669 167.628 512.665 167.895 512.663 168.161C512.638 170.531 512.615 172.892 513.335 175.177C513.752 176.497 513.759 178.428 513.765 180.282C513.769 181.626 513.773 182.93 513.934 183.933C507.202 181.885 494.696 178.846 487.824 181.609C481.254 184.249 480.427 196.461 480.195 202.401C480.136 203.901 480.347 205.704 480.566 207.574C480.937 210.749 481.33 214.122 480.473 216.56C479.811 218.44 479.833 218.996 479.877 219.132C479.763 219.065 479.247 219.045 477.359 220.408C476.517 221.014 475.602 221.497 474.681 221.981C473.584 222.559 472.481 223.14 471.49 223.938C468.855 226.063 467.956 228.413 466.876 231.234C466.597 231.961 466.307 232.721 465.971 233.515C464.382 237.279 460.149 240.623 455.424 240.487C456.025 239.398 456.663 238.32 457.299 237.245C460.683 231.529 464.017 225.899 461.469 219.095C459.23 213.112 463.036 206.11 466.154 200.376L466.337 200.04C466.528 199.688 467.073 198.906 467.803 197.857C471.056 193.187 477.996 183.226 473.815 182.379C470.843 181.777 464.43 194.183 462.058 198.771C461.777 199.316 461.552 199.751 461.398 200.04C457.325 197.287 455.496 193.895 458.631 189.749C459.739 188.283 460.964 186.915 462.191 185.544C463.63 183.937 465.073 182.326 466.337 180.548C467.452 178.98 468.558 177.322 469.68 175.644C472.384 171.594 475.174 167.419 478.368 164.06C486.305 155.716 500.157 150.035 511.585 149.985C511.329 153.235 511.7 156.358 512.076 159.523C512.38 162.079 512.687 164.661 512.669 167.361ZM479.904 219.169C479.908 219.164 479.902 219.146 479.877 219.132C479.888 219.166 479.901 219.173 479.904 219.169ZM544.901 300.677C547.153 295.948 549.121 291.814 550.282 289.725C557.306 277.092 564.261 264.566 570.846 251.698C565.624 253.688 561.201 256.74 556.719 259.832C556.043 260.298 555.367 260.764 554.684 261.229C552.324 262.838 549.749 264.291 547.16 265.751C543.274 267.944 539.356 270.154 536.089 272.935C535.349 273.564 534.751 274.261 534.18 274.927C532.876 276.445 531.719 277.792 529.366 277.769C527.758 277.753 525.481 276.093 523.445 274.608C522.259 273.743 521.155 272.938 520.312 272.552C518.653 271.793 517.285 270.8 515.931 269.817C514.405 268.709 512.898 267.615 511.015 266.886C509.844 266.432 508.887 266.28 508.004 266.141C506.514 265.904 505.238 265.702 503.509 264.13C502.395 270.712 486.915 267.612 476.873 265.6C473.538 264.932 470.803 264.385 469.392 264.351C468.856 264.339 468.3 264.323 467.728 264.305C462.71 264.16 456.474 263.979 452.102 265.855C448.753 267.292 444.795 270.538 441.36 273.354C440.034 274.443 438.786 275.466 437.682 276.297C432.233 280.392 428.348 285.614 424.337 291.283C419.19 298.556 426.876 297.854 432.423 297.348C432.805 297.313 433.177 297.28 433.534 297.249C446.175 296.176 458.459 298.304 470.645 301.191C481.528 303.769 491.428 307.727 501.848 311.908C503.777 312.682 507.285 314.503 511.242 316.556C519.308 320.741 529.238 325.895 531.476 325.132C533.605 324.404 539.942 311.094 544.901 300.677Z" fill="#FF5678"/>
<path fill-rule="evenodd" clip-rule="evenodd" d="M615.531 218.731C619.919 218.507 624.287 219.486 628.674 219.059C624.865 215.742 621.056 212.426 617.246 209.11C615.564 212.064 615.441 215.425 615.531 218.731ZM511.436 150.55C500.08 150.6 486.227 156.302 478.338 164.629C474.158 169.043 470.704 174.97 467.168 179.928C464.798 183.255 462.482 186.466 459.604 189.39C455.407 193.651 456.609 194.625 461.337 197.833C462.834 195.03 470.769 180.042 474.095 180.716C479.148 181.741 469.389 197.573 468.323 199.545C465.166 205.38 460.067 213.531 462.358 219.686C465.381 227.81 460.998 232.44 457.192 239.362C461.189 239.478 461.582 237.92 462.96 234.513C464.729 230.134 466.659 226.476 470.399 223.448C473.296 221.104 478.034 220.117 479.395 217.286C481.078 213.787 480.022 206.878 480.158 202.986C480.365 197.071 480.38 183.09 486.9 180.461C493.732 177.708 506.014 180.303 512.692 182.342C511.858 177.13 509.228 173.726 509.264 167.933C509.303 161.87 510.973 156.461 511.436 150.55ZM424.192 247.278C430.132 245.398 435.764 243.417 441.876 242.136C448.272 240.795 448.699 239.26 452.305 233.777C455.038 229.621 458.354 226.382 457.579 221.292C457.083 218.026 455.295 216.436 455.832 212.764C456.166 210.488 457.228 208.004 457.996 205.84C458.938 203.185 460.888 200.174 456.352 200.043C453.847 199.97 453.725 201.291 452.03 203.509C448.901 207.606 445.3 211.326 441.971 215.256C436.189 222.079 430.057 229.338 423.603 235.653C416.497 242.601 410.365 250.982 405.772 259.877C404.924 261.52 399.766 271.196 401.967 273.093C403.987 274.836 415.226 270.772 417.274 270.297C426.12 268.244 436.16 267.512 444.516 263.784C448.774 261.884 458.17 259.617 461.533 256.678C464.659 253.947 464.518 247.329 462.704 243.478C457.627 246.636 420.919 258.549 424.192 247.278ZM534.706 192.976C540.633 187.624 547.639 183.331 554.959 180.149C561.505 177.304 569.638 174.132 576.922 174.626C585.996 175.24 582.204 182.547 582.171 188.769C582.129 197.026 578.509 208.92 588.371 213.204C591.59 201.771 598.376 174.738 614.632 189.717C618.786 178.725 633.603 175.005 644.037 172.986C642.146 167.433 636.401 162.406 632.42 158.237C627.44 153.023 623.507 146.911 618.517 141.796C608.66 131.692 590.802 134.937 578.322 137.456C574.157 138.295 562.08 139.35 560.063 142.408C558.797 144.326 559.504 149.012 558.566 151.358C557.273 154.588 555.065 157.584 553.293 160.568C546.829 171.457 540.252 182.417 529.189 188.653L534.706 192.976ZM570.881 251.641C565.028 253.886 560.722 257.64 555.531 260.8C549.237 264.634 541.856 268.224 536.207 272.958C534.14 274.689 532.978 277.681 530.126 277.875C527.644 278.043 523.863 275.162 521.662 274.154C517.972 272.46 514.447 269.894 510.738 268.385C507.69 267.145 506.34 267.398 503.703 264.985C502.223 273.787 475.312 265.56 469.666 265.426C464.443 265.302 457.278 265.921 452.417 268.019C447.785 270.018 444.164 274.419 440.199 277.417C434.765 281.528 429.579 285.687 425.578 291.377C420.088 299.181 428.37 296.973 433.893 296.501C446.5 295.424 458.763 298.426 470.917 301.322C481.779 303.911 492.508 307.016 502.907 311.214C508.755 313.576 514.911 315.746 520.411 318.815C523.311 320.434 528.014 324.396 531.342 323.253C534.393 322.207 537.434 313.463 539.284 309.97C542.877 303.191 546.656 296.526 550.366 289.813C557.373 277.132 564.313 264.558 570.881 251.641ZM498.859 419.47C502.466 417.4 508.346 417.957 512.334 417.089C516.841 416.109 521.373 414.511 525.67 412.846C530.022 411.16 534.135 409.435 538.112 407.325C539.93 406.36 542.354 405.41 544.035 404.072C545.39 402.992 545.883 400.988 547.132 400.009C550.39 397.455 551.347 399.058 551.784 394.13C552.259 388.778 549.254 385.748 545.515 381.742C542.167 378.158 537.819 375.06 533.612 372.538C531.751 371.423 529.764 370.168 527.865 369.104C524.992 367.492 521.142 364.812 519.634 368.272C522.774 369.073 523.466 373.081 520.632 374.521C519.076 375.313 516.721 374.151 514.966 374.991C512.257 376.29 509.651 379.912 507.333 381.863C499.722 388.268 492.443 390.67 482.481 391.184C461.666 392.257 439.869 389.884 419.453 386.8C414.199 386.005 408.954 386.866 403.651 386.676C398.491 386.492 393.111 385.364 388.039 384.493C378.269 382.815 367.971 381.434 358.353 378.967C346.721 375.981 335.049 372.119 324.128 367.118C313.653 362.319 301.813 354.392 290.047 353.78C295.068 358.695 302.591 360.588 308.631 363.825C313.567 366.469 321.286 368.167 324.405 372.524C326.435 375.36 327.453 380.569 328.987 383.895C330.683 387.574 332.248 391.314 333.818 395.048C335.395 398.807 337.038 402.567 338.318 406.438C339.112 408.838 339.453 413.817 341.326 415.459C344.314 418.08 354.313 419.243 358.34 420.114C365.858 421.742 374.433 421.526 382.1 421.639C385.269 421.685 388.463 422.117 391.491 422.176C395.743 422.258 395.337 421.522 395.277 417.831C395.242 415.615 395.286 411.586 398.251 413.41C400.271 414.654 398.881 420.162 398.507 422.12C415.433 423.805 433.092 424.652 449.937 424.089C466.503 423.533 482.495 421.398 498.859 419.47ZM575.294 380.633C578.281 359.195 581.92 337.4 585.994 316.24C590.11 294.858 595.06 273.67 600.627 252.368C596.95 251.488 593.272 250.61 589.595 249.732C589.458 254.22 587.94 258.119 587.292 262.586C586.399 268.753 584.691 274.741 583.669 280.888C581.726 292.571 578.127 304.004 574.956 315.397C571.724 327.012 570.644 338.979 567.675 350.653C565.228 360.27 563.977 370.864 562.611 380.751C559.295 404.737 554.571 428.77 550.976 452.768C547.605 475.268 547.267 498.224 547.461 520.934C547.58 534.799 549.696 548.624 549.586 562.508C549.558 565.939 549.847 569.361 550.025 572.787C550.151 575.204 548.852 581.906 549.954 583.931C550.651 585.212 553.648 586.395 554.708 588.175C556.386 590.992 556.739 594.359 559.434 596.49C561.618 587.684 560.586 576.061 560.109 567.073C559.647 558.413 560.544 549.463 560.72 540.671C561.065 523.423 561.979 506.427 562.864 489.171C563.834 470.246 566.592 450.861 569.286 432.078C571.736 415 573.37 397.619 575.294 380.633ZM495.359 111.791C494.175 111.68 492.991 111.57 491.806 111.46C491.983 113.955 491.456 117.995 493.215 119.296C494.548 120.282 497.247 119.958 498.863 120.273C504.159 121.308 510.297 122.174 515.555 120.288C517.598 119.556 516.286 118.408 519.099 118.885C522.488 119.461 521.25 119.997 522.229 122.11C522.983 123.741 523.371 126.516 524.226 128.475C525.371 131.094 527.693 135.783 526.7 138.809C525.736 141.75 522.138 142.639 520.609 145.969C519.471 148.446 519.739 152.045 519.149 154.773C518.361 158.41 517.364 162.034 516.923 165.739C516.37 170.406 516.559 175.883 522.345 176.607C527.714 177.28 531.553 175.555 535.153 171.646C542.03 164.184 549.881 153.65 553.921 144.263C554.393 143.167 555.554 141.337 555.392 140.163C555.072 137.841 554.933 140.191 554.196 138.579C553.494 137.037 552.391 135.638 551.742 133.927C549.41 127.78 547.756 121.337 546.821 114.829C546.397 111.881 546.254 108.97 546.328 105.993C546.351 104.977 546.962 101.926 546.598 101.229C546.227 100.524 544.292 100.199 543.689 99.4991C542.571 98.2019 540.65 94.5393 539.412 93.5679C537.888 92.3749 534.48 93.3205 533.861 90.9466C532.871 87.1487 556.301 80.9624 545.355 75.8942C537.182 72.1102 524.647 91.2388 521.789 76.1868C521.294 73.5796 522.238 70.0405 521.093 67.6511C519.828 65.0102 516.387 64.023 513.983 62.7379C510.915 61.0994 507.816 59.4155 504.834 57.6209C502.788 56.391 499.842 53.125 497.665 52.8259C498.522 57.2591 496.88 61.6532 496.852 66.0776C501.567 64.8021 504.812 64.7751 509.466 67.0431C511.682 68.1224 520.033 74.2481 515.802 77.1946C512.375 75.1693 508.708 73.4127 504.887 72.2218C503.38 71.7515 501.498 71.1122 499.895 71.0797C496.174 71.0049 496.699 71.3939 495.302 74.1983C493.955 76.8999 494.245 83.9456 491.288 85.6707C488.231 87.4547 490.588 84.9577 487.978 85.5342C486.489 85.8637 484.867 86.9703 483.504 87.5952C485.371 89.6217 489.141 91.4715 490.379 93.7222C492.186 97.0037 491.559 103.79 491.842 107.38C494.207 106.534 496.697 106.499 499.095 105.871C501.348 105.279 504.474 102.719 504.709 106.483C504.972 110.677 498.338 111.791 495.359 111.791ZM526.144 222.232C526.327 218.607 526.529 214.984 526.933 211.374C527.205 208.95 529.508 201.919 528.206 199.79C526.791 197.474 522.048 197.327 519.764 196.771C515.389 195.705 511.192 194.831 506.745 194.127C502.654 193.48 498.8 193.344 494.678 193.156C490.189 192.953 489.077 191.763 488.084 196.707C487.305 200.595 486.258 204.645 486.113 208.626C485.976 212.362 487.106 215.606 483.401 218.124C491.535 218.124 502.129 210.884 509.552 217.358C520.171 226.615 501.692 229.282 496.819 231.326C500.871 233.294 506.883 234.839 508.79 239.334C510.929 244.372 507.825 246.514 503.074 246.917C503.52 248.859 505.231 250.12 505.741 252.456C506.487 255.879 504.066 254.745 507.155 257.394C511.222 260.88 519.594 263.211 524.58 265.431C525.749 265.953 526.931 266.443 528.126 266.902C529.995 268.563 531.374 268.247 532.265 265.951C534.824 264.332 537.101 260.72 539.371 258.62C544.419 253.944 549.993 249.842 555.993 246.467C553.506 245.437 550.531 247.764 548.144 246.631C546.215 245.716 546.942 244.05 545.786 242.802C546.249 241.176 545.76 240.581 544.319 241.018C543.599 241.095 542.929 240.972 542.309 240.653C541.101 239.157 540.559 238.667 540.479 236.358C540.394 233.908 541.814 233.044 542.359 231.082C544.129 229.876 544.089 228.691 542.238 227.529C541.476 226.285 541.062 224.936 540.993 223.48C540.641 218.076 545.575 215.898 549.338 213.04C542.6 212.299 542.857 204.399 547.519 200.946C552.352 197.366 562.583 198.832 568.427 199.64C569.642 199.806 572.925 201.373 574.153 200.374C574.907 199.762 574.375 194.586 574.41 193.672C574.489 191.598 574.993 189.125 574.662 187.062C573.971 182.741 575.437 184.917 572.325 184.797C564.921 184.51 555.491 190.971 548.977 194.018C541.685 197.428 536.999 197.952 536.923 206.407C536.85 214.412 534.605 222.389 533.624 230.267C533.196 233.708 532.89 251.582 526.59 244.987C524.148 242.427 525.713 238.493 525.894 235.338C526.141 230.996 525.995 226.586 526.144 222.232ZM118.797 490.216C122.402 490.856 128.273 488.787 132.206 488.57C139.082 488.192 146.163 487.537 152.9 486.107C158.171 484.987 164.177 484.003 167.019 478.903C169.56 474.345 170.458 468.638 171.826 463.664C172.553 461.024 174.429 457.194 174.428 454.462C174.427 450.91 173.948 451.61 170.243 449.665C165.553 447.206 160.99 443.778 155.931 442.382C154.4 442.083 152.869 441.791 151.336 441.504C149.354 440.354 148.235 440.92 147.976 443.198C146.041 445.237 144.907 448.996 143.283 451.381C139.582 456.819 135.187 460.524 129.445 463.66C119.112 469.302 109.484 473.656 98.4174 477.345C92.3184 479.378 86.6944 482.23 80.733 484.471C75.957 486.267 69.3656 486.812 65.6969 490.809C61.5575 495.318 67.92 496.958 71.4564 500.006C74.3541 502.504 74.4105 503.077 78.3742 501.864C81.3272 500.961 83.9451 499.233 86.7806 498.062C96.4945 494.051 108.251 491.382 118.797 490.216ZM340.791 561.735C337.171 560.953 333.551 560.17 329.931 559.388C333.49 566.032 340.979 575.754 335.605 583.444C333.596 586.316 330.255 587.135 327.271 588.592C323.658 590.357 320.323 592.616 316.908 594.718C302.827 603.385 288.516 612.174 273.678 619.611C278.324 621.11 285.465 622.147 290.249 620.841C295.82 619.32 300.978 615.828 306.697 614.302C316.957 611.565 327.757 609.233 338.181 607.829C346.702 606.682 368.03 609.274 366.994 596.465C366.01 584.304 358.744 572.701 356.581 560.678C351.274 561.856 346.213 561.65 340.791 561.735ZM556.574 367.083C560.7 346.839 563.165 326.251 568.032 306.152C570.46 296.125 572.171 285.961 574.543 275.932C575.647 271.266 576.481 266.553 577.555 261.896C578.644 257.181 580.986 252.83 581.523 247.955C577.579 248.931 576.667 257.958 575.472 261.355C573.279 267.585 570.888 273.572 568.071 279.538C563.592 289.02 558.84 298.167 553.788 307.36C548.46 317.057 542.834 326.381 536.178 335.235C533.992 338.145 531.024 340.425 529.615 343.616C527.398 348.637 526.466 354.62 524.35 359.844C525.841 360.601 529.692 360.789 531.52 361.15C534.921 361.821 537.304 362.417 540.57 364.034C546.324 366.882 551.158 370.257 555.003 375.381C555.969 372.751 556.221 369.867 556.574 367.083ZM396.188 521.543C396.12 502.046 395.843 482.383 396.163 463.03C396.251 457.657 396.689 451.859 397.468 446.527C397.957 443.175 400.838 436.049 398.944 434.443C397.326 433.069 388.785 433.974 386.688 433.925C382.624 433.831 378.571 433.65 374.497 433.344C374.497 440.57 377.321 448.775 378.634 455.922C379.856 462.59 380.862 469.294 381.872 475.993C384.057 490.497 384.678 505.202 387.051 519.745C389.2 532.932 392.036 546.063 393.6 559.248C394.458 566.485 396.194 573.314 397.543 580.546C398.248 584.318 400.817 599.854 404.053 601.381C404.737 595.809 401.943 589.079 401.442 583.444C400.926 577.626 400.525 571.769 399.582 565.92C398.474 559.055 397.914 552.019 397.489 545.068C397.229 540.815 397.151 536.575 396.783 532.325C396.517 529.241 395.349 524.567 396.188 521.543ZM497.832 260.828C497.966 258.705 492.469 258.79 491.446 256.35C489.368 251.395 494.102 252.287 497.013 251.774C495.975 249.018 476.542 250.021 481.07 242.582C484.211 237.421 496.12 245.321 499.303 240.416C501.395 237.195 495.702 236.751 493.443 236.429C490.046 235.942 482.042 237.515 482.305 233.108C482.637 227.57 498.198 223.748 502.563 222.122C502.079 218.33 483.351 223.72 480.641 225.257C474.506 228.736 469.806 234.978 468.906 241.915C467.857 249.987 471.952 256.344 480.017 258.325C483.38 259.151 485.866 259.243 488.977 260.484C491.025 261.3 497.651 263.336 499.054 261.276C498.646 261.127 498.24 260.977 497.832 260.828ZM607.776 210.622C608.086 207.175 610.989 200.686 607.645 198.422C602.964 195.252 601.025 200.475 599.965 203.612C598.668 207.443 593.216 216.82 597.983 219.206C599.091 219.762 604.347 219.116 605.274 218.75C607.857 219.422 608.689 218.456 607.776 215.847V210.622ZM493.556 488.986C493.262 479.566 497.483 468.239 499.874 459.012C502.585 448.557 504.013 437.894 506.885 427.554C503.69 427.939 500.466 428.253 497.309 428.893C493.003 429.768 492.925 429.63 493.235 433.853C493.696 440.195 493.092 446.412 492.764 452.752C492.108 465.445 493.707 478.346 492.643 490.958C493.592 491.199 493.895 490.541 493.556 488.986ZM612.792 242.08C623.139 243.663 633.056 246.942 642.471 251.348C647.661 253.776 653.378 256.386 659.178 257.356C665.621 258.434 672.454 257.928 679.035 258.344C681.354 258.49 687.453 259.617 689.714 258.253C691.955 256.902 691.78 254.612 691.885 251.882C692.156 244.862 688.977 237.987 686.119 231.688C683.666 226.283 681.812 222.157 678.007 217.508C673.12 211.537 668.865 205.094 664.288 198.862C660.838 194.165 657.351 189.535 653.834 184.843C651.319 181.483 651.438 180.327 647.645 180.703C643.911 181.073 640.152 183.28 636.634 184.449C631.414 186.185 625.092 187.137 620.332 189.913C617.254 191.708 617.117 192.038 617.152 195.169C617.186 198.086 618.128 201.645 619.872 203.926C623.499 208.664 629.51 211.171 634.668 213.535C637.653 214.901 640.232 216.84 642.889 218.725C645.751 220.758 651.526 221.955 653.716 224.272C660.092 231.02 648.484 229.686 645.241 229.483C638.242 229.043 631.28 229.11 624.229 229.105C616.533 229.099 608.898 228.742 601.311 228.992C596.867 229.138 591.768 226.885 588.889 223.129C587.494 221.31 586.951 219.59 585.128 217.702C582.739 215.231 580.661 212.627 577.755 210.714C573 207.584 564.359 205.814 558.698 206.982C560.725 207.265 570.258 210.509 566.062 214.587C565.55 215.084 559.418 215.409 558.085 216.021C555.679 217.125 552.648 218.73 551.237 221.061C555.345 220.374 570.58 219.577 562.808 227.456C560.901 229.391 555.423 231.321 560.084 233.377C561.154 233.85 563.297 233.181 564.675 233.607C566.724 234.241 568.398 235.937 570.318 236.841C575.762 239.408 583.265 240.99 588.946 240.428C596.803 239.649 604.99 241.052 612.792 242.08ZM404.46 479.491C404.728 490.809 404.319 502.194 404.561 513.565C404.818 525.708 406.377 537.609 407.12 549.63C407.787 560.403 409.242 570.972 410.424 581.694C411.105 587.87 411.888 593.775 412.934 599.905C413.913 605.64 414.08 610.694 407.221 612.236C394.107 615.186 392.068 596.327 389.534 588.38C385.751 576.521 383.325 564.071 381.45 551.777C377.96 528.881 373.319 506.304 371.508 483.213C370.393 468.995 368.777 454.922 367.859 440.717C367.679 437.933 368.389 433.644 365.944 432.404C364.473 431.66 360.422 431.653 358.565 431.114C353.392 429.61 348.621 427.395 343.574 425.096C347.156 443.819 348.339 462.449 351.026 481.336C352.452 491.357 355.18 501.742 357.544 511.606C359.994 521.827 360.538 532.832 363.364 542.831C364.609 547.238 365.663 549.033 363.856 553.557C361.64 559.109 363.11 560.437 365.89 565.89C371.002 575.923 374.905 587.762 374.038 599.072C373.331 608.309 366.35 613.145 357.701 615.637C346.883 618.753 335.555 618.385 324.671 621.924C315.189 625.006 305.554 627.285 296.346 631.355C292.633 632.995 289.105 634.943 284.982 635.244C279.327 635.654 275.514 632.375 270.174 631.691C266.836 631.264 261.948 632.857 260.025 629.359C258.501 626.586 260.225 620.534 262.14 618.303C267.515 612.029 278.281 606.564 285.531 602.862C293.886 598.595 301.971 593.255 309.713 587.749C314.406 584.411 319.191 581.208 323.88 577.863C326.982 575.649 328.16 575.636 327.844 572.119C327.591 569.315 326.327 566.594 326.106 563.723C325.937 561.523 326.707 558.525 325.667 557.089C324.903 556.031 322.031 555.284 320.902 554.482C316.774 551.556 315.835 547.937 313.961 543.487C309.702 533.378 304.809 523.554 300.697 513.365C291.867 491.488 286.479 468.483 279.159 446.159C271.681 423.352 264.994 399.409 260.876 375.747C255.365 377.424 250.163 384.842 245.774 388.512C239.845 393.473 233.769 398.27 227.955 403.367C218.424 411.721 208.773 419.846 200.896 429.852C197.101 434.67 193.994 439.857 190.559 444.919C188.575 447.844 186.724 451.155 184.575 453.937C184.231 454.384 184.22 455.301 183.849 455.681C183.03 456.516 181.467 455.403 180.943 455.954C177.704 459.339 177.746 468.951 176.737 473.418C175.346 479.574 173.785 486.652 168.976 490.895C161.548 497.447 147.851 498.463 138.451 498.803C126.387 499.239 114.685 502.6 103.239 506.209C97.9009 507.892 92.7021 509.862 87.3437 511.495C84.2618 512.437 80.746 514.313 77.4546 513.952C73.4854 513.517 70.3514 510.179 67.444 507.697C62.7927 503.728 58.4864 499.815 58.6404 493.302C58.8041 486.408 62.54 481.205 68.4254 477.78C79.8036 471.16 92.5296 466.916 104.794 462.341C109.494 460.586 113.517 458.645 118.011 456.284C124.361 452.947 131.67 450.223 137.304 445.816C138.965 444.517 145.07 440.533 145.59 438.478C145.658 438.21 144.133 435.074 144.126 434.576C144.111 433.296 144.869 431.91 145.335 430.815C148.27 423.919 153.192 417.278 156.955 410.775C163.847 398.864 170.765 386.89 178.755 375.688C194.688 353.353 212.586 331.484 231.903 311.987C241.32 302.482 249.458 291.702 259.008 282.328C262.792 278.616 266.786 275.592 271.447 273.182C276.645 270.496 282.478 269.969 288.435 269.149C302.87 267.163 314.925 271.431 328.477 275.145C341.289 278.656 354.115 281.618 366.999 285.275C381.147 289.291 395.151 293.144 409.255 297.521C416.792 299.859 424.544 301.294 432.116 303.539C435.761 304.618 449.545 311.385 452.585 309.162C443.009 304.67 433.199 300.576 422.954 297.866C419.937 297.067 418.01 297.951 418.122 294.487C418.183 292.599 420.307 290.049 421.071 288.494C422.902 284.772 424.975 281.134 426.766 277.4C420.271 279.244 402.814 285.625 397.919 279.029C392.798 272.124 397.073 258.589 400.284 251.829C408.663 234.183 422.915 219.458 436.801 206.156C439.806 203.281 446.281 199.525 447.882 195.862C448.368 194.748 447.309 193.112 448.407 191.665C449.061 190.804 451.684 190.216 452.732 189.289C456.551 185.91 459.597 178.8 462.235 174.371C464.999 169.731 467.488 164.708 470.961 160.545C476.641 153.739 482.504 146.524 491.701 144.932C496.211 144.152 501.002 144.569 505.325 143.011C510.553 141.128 515.521 138.161 520.8 136.21C519.49 133.519 518.429 129.238 515.888 128.944C513.441 128.661 509.853 130.763 507.052 130.748C502.963 130.725 499.473 130.072 495.526 129.293C491.158 128.429 489.719 128.586 488.127 123.849C486.457 118.888 486.878 113.124 486.892 107.971C486.898 105.453 487.398 102.326 487.183 99.8543C486.862 96.1297 486.137 95.9866 483.217 93.6179C479.567 90.6587 475.069 86.7427 479.539 81.6007C481.954 78.8222 486.918 80.983 489.057 77.9976C491.236 74.9569 491.131 67.3184 491.795 63.7467C485.077 67.0474 487.54 54.7081 487.539 51.739C487.538 47.4185 484.641 39.6489 488.811 36.0545C490.749 34.3858 492.188 35.7663 494.403 34.8073C496.932 33.7128 498.523 30.8422 501.213 29.7293C506.558 27.5166 512.017 30.1813 517.504 29.7413C523.8 29.2374 529.984 28.2643 536.314 29.2742C539.313 29.7511 540.575 30.8899 543.113 32.1665C545.553 33.3942 548.029 33.7301 550.679 34.5201C553.038 35.2234 555.106 35.5788 556.7 37.6333C557.959 39.2589 557.446 41.9928 558.718 43.394C559.973 44.7745 562.455 44.574 563.951 46.2136C565.386 47.787 566.245 50.3877 566.992 52.3459C568 54.9834 568.118 55.9738 569.894 58.0847C571.442 59.9269 573.67 61.4083 574.961 63.5094C578.005 68.4627 578.082 75.6255 577.111 81.1975C576.781 83.095 574.03 87.9995 574.46 89.614C574.87 91.1509 577.45 90.7466 578.618 91.7189C579.628 92.5585 580.516 96.3003 581.312 96.5288C583.032 97.0218 585.153 93.6265 586.457 93.1171C588.721 92.2318 589.669 91.3241 590.924 94.6609C591.853 97.1365 590.558 100.497 589.876 102.86C589.008 105.868 588.049 109.491 585.751 111.766C583.048 114.44 580.885 112.978 577.903 114.418C573.433 116.577 574.752 123.326 569.253 125.255C564.013 127.093 558.239 121.311 554.276 118.652C555.097 125.105 558.187 131.323 556.704 137.937C568.756 133.216 580.677 126.517 593.811 125.041C600.509 124.288 607.275 123.397 613.597 126.176C620.998 129.429 625.532 136.605 630.541 142.567C639.955 153.773 649.615 164.664 658.65 176.231C666.937 186.841 673.925 199.134 683.047 209.07C692.296 219.144 699.277 235.489 698.264 249.44C698.174 250.699 697.197 253.56 697.35 254.917C697.469 255.958 698.415 257.277 698.399 258.115C698.349 260.938 697.416 262.564 694.724 264.129C690.057 266.846 683.104 268.221 677.83 268.895C670.823 269.792 662.242 269.888 655.232 268.931C648.002 267.943 641.647 263.898 634.998 261.453C629.166 259.307 623.309 257.968 617.181 256.599C613.801 255.844 610.058 253.754 607.969 255.777C606.051 257.636 605.653 267.176 605.206 269.713C600.357 297.21 594.595 323.774 589.492 351.13C583.709 382.137 579.753 413.132 575.732 444.402C572.075 472.827 570.881 501.574 570.063 529.972C569.673 543.519 569.616 556.92 569.699 570.478C569.745 578.071 573.542 603.413 562.283 604.384C555.667 604.955 550.374 595.472 548.601 590.301C545.937 582.532 544.55 574.165 544.125 566.003C543.266 549.48 542.14 532.944 541.472 516.415C540.75 498.507 541.669 480.268 543.142 462.419C544.624 444.45 548.358 426.743 549.504 408.748C546.067 413.65 544.968 414.571 539.244 416.706C533.254 418.942 527.492 421.585 521.449 423.67C519.393 424.378 516.184 424.822 514.498 425.983C511.388 428.124 513.432 425.694 512.438 429.862C511.378 434.315 511.178 439.66 510.896 444.236C509.572 465.708 503.621 487.027 500.877 508.386C500.214 513.542 501.159 535.434 492.281 528.535C485.444 523.221 485.579 506.533 484.607 498.715C483.311 488.295 484.033 477.581 484.238 467.098C484.471 455.159 484.672 442.636 487.522 430.978C482.422 430.106 475.33 432.483 470.198 432.883C465.753 433.228 461.324 433.448 456.905 433.691C446.367 434.269 435.511 434.731 424.795 434.524C422.843 434.486 410.098 432.702 408.469 434.14C407.94 434.607 407.778 441.032 407.68 441.816C407.304 444.767 406.796 447.716 406.416 450.651C405.206 460.035 404.113 470.111 404.46 479.491Z" fill="white"/>
<path fill-rule="evenodd" clip-rule="evenodd" d="M593.737 568.663C601.78 571.805 610.316 572.946 618.427 575.808C625.678 578.368 632.413 581.808 639.552 584.408C639.97 581.097 640.192 575.491 638.969 572.371C637.237 567.951 632.68 567.844 628.193 566.27C617.271 562.439 605.782 561.631 594.939 557.157C596.796 560.729 595.967 565.459 593.737 568.663ZM732.577 557.109C715.206 557.618 698.606 561.659 681.486 564.158C673.156 565.373 664.817 566.458 656.479 567.593C653.27 568.029 647.422 567.515 645.089 570.292C643.156 572.592 645.275 580.443 644.416 583.814C647.927 584.074 654.161 580.795 657.971 580.252C663.906 579.409 669.762 578.227 675.757 577.851C685.253 577.253 694.582 576.744 704.061 575.688C713.701 574.614 723.03 572.617 732.746 571.888C737.469 571.533 739.369 572.418 739.647 567.433C739.757 565.484 740.024 562.223 739.477 560.3C740.351 557.938 739.576 556.791 737.152 556.859C735.612 556.685 734.088 556.769 732.577 557.109ZM698.98 541.201C703.678 540.76 708.395 540.128 713.104 539.864C714.059 539.809 718.903 540.102 719.693 539.214C720.814 537.959 719.566 533.366 719.36 531.946C718.662 527.114 717.89 524.304 712.618 524.294C708.168 524.283 703.561 525.224 699.129 525.657C679.009 527.629 658.991 528.461 639.092 532.204C640.304 537.361 641.678 542.68 640.229 547.953C649.775 548.445 660.255 546.609 669.584 544.725C679.118 542.801 689.235 541.845 698.98 541.201ZM667.135 492.656C659.946 492.688 652.348 495.853 645.255 495.147C645.149 496.467 647.419 495.372 648.046 496.606C649.385 496.61 649.852 497.046 649.443 497.919C649.468 498.514 649.164 498.863 648.529 498.964C648.216 498.991 647.903 499.018 647.592 499.045C646.22 499.09 645.995 500.014 646.918 501.821C646.522 504.061 647.117 506.905 647.203 509.152C659.95 507.419 672.335 505.615 685.173 504.841C691.233 504.476 697.289 504.477 703.342 503.979C710.002 503.43 717.272 504.606 723.782 503.36C727.264 502.693 726.899 502.739 726.645 498.215C726.49 495.466 726.548 492.202 724.309 490.197C720.569 486.849 712.055 488.784 707.584 488.902C694.117 489.258 680.422 490.509 667.135 492.656ZM674.493 557.271C693.751 555.522 712.864 551.693 732.23 551.693C730.861 550.326 727.878 549.973 726.174 549.227C724.231 548.377 722.397 546.566 720.498 545.822C716.687 544.331 712.81 546.403 708.896 547.298C699.454 549.459 689.767 549.533 680.31 551.653C670.534 553.843 660.631 555.864 650.674 556.978C645.933 557.508 640.846 558.582 636.161 557.331C635.782 557.059 635.399 556.787 635.019 556.516C634.61 554.773 633.473 554.308 631.609 555.12C629.241 554.669 626.226 555.251 623.843 555.31C623.746 556.262 632.552 559.247 634.231 559.987C638.277 561.768 641.02 563.071 645.341 562.308C655.071 560.59 664.64 558.539 674.493 557.271ZM606.75 500.989C607.502 503.922 610.663 502.587 613.383 502.911C617.035 503.343 620.668 504.603 624.205 505.552C630.629 507.277 637.054 508.979 643.449 510.803C643.197 508.221 643.769 502.343 642.404 500.052C640.971 497.65 634.18 496.598 631.018 495.865C623.046 494.021 614.532 495.07 606.434 495.458C606.577 497.3 606.683 499.142 606.75 500.989ZM683.32 519.337C690.883 518.696 698.455 518.198 706.04 517.932C714.712 517.628 708.408 516.243 708.226 510.956C696.828 512.773 685.33 513.132 673.967 514.685C664.554 515.974 653.34 519.337 643.739 517.531C639.21 516.679 634.586 516.351 629.769 515.869C625.224 515.415 620.935 513.298 616.446 512.773C611.406 512.182 606.257 515.014 601.244 515.762C599.119 516.079 598.625 517.52 597.621 514.963C596.581 512.311 599.561 510.144 600.735 508.558C602.105 506.705 601.536 509.713 602.297 506.82C602.51 506.01 601.933 503.973 601.827 503.099C601.558 500.892 600.863 498.497 600.756 496.293C600.656 494.269 600.638 491.18 602.836 489.999C604.177 489.279 605.128 490.329 606.298 490.126C615.425 488.539 626.161 488.409 635.418 489.941C645.452 491.6 654.089 487.206 663.98 485.425C675.583 483.334 687.307 483.021 699.01 482.138C709.017 481.384 727.301 477.469 731.112 490.245C732.192 493.865 733.764 503.831 730.86 506.911C727.049 510.956 718.225 509.665 713.297 510.717C714.034 512.812 716.229 514.238 715.469 516.734C722.375 517.06 723.596 523.581 724.678 529.668C725.798 535.967 723.614 538.47 729.636 541.75C738.028 546.321 746.918 550.937 746.753 561.823C746.671 567.296 746.058 575.551 740.437 578.39C734.937 581.168 725.981 580.698 719.92 581.707C708.182 583.661 696.403 585.953 684.594 587.126C672.02 588.375 659.236 589.401 646.641 589.959C639.778 590.265 633.85 591.301 627.222 588.992C620.706 586.723 614.332 585.065 607.608 583.38C600.971 581.718 580.653 579.479 586.573 568.132C587.52 566.317 590.759 564.873 591.282 563.157C592.125 560.388 589.276 558.226 589.395 555.724C589.612 551.145 594.78 550.571 598.348 550.571C592.232 546.748 600.422 542.22 600.374 538.974C600.287 533.255 593.172 529.542 592.769 524.748C591.79 513.08 628.817 525.229 634.516 527.753C630.129 534.255 609.779 528.629 603.718 527.643C604.545 529.814 605.335 531.765 605.574 533.989C605.768 535.8 605.076 537.87 605.71 539.693C606.71 542.576 606.675 542.024 610.217 542.81C612.837 543.391 615.427 544.062 618.038 544.679C622.049 545.624 628.359 548.163 632.333 548.024C635.82 547.903 635.131 548.983 635.77 545.113C636.114 543.033 635.527 540.822 635.176 538.785C634.444 534.514 633.373 530.472 637.104 527.409C640.661 524.487 648.16 523.096 652.523 522.066C662.207 519.779 673.384 519.218 683.32 519.337Z" fill="white"/>
<path fill-rule="evenodd" clip-rule="evenodd" d="M729.402 446.45C718.884 444.688 708.199 444.255 697.558 444.788C698.134 447.421 698.711 450.052 699.289 452.683C709.258 450.117 719.371 448.613 729.402 446.45ZM643.881 466.869C639.664 466.56 642.598 468.445 643.64 471.205C644.919 474.595 644.645 478.882 644.939 482.451C657.28 477.747 671.638 474.994 684.759 473.41C690.981 472.66 697.294 472.445 703.551 472.124C705.401 472.029 712.08 472.803 713.433 471.559C714.438 470.635 713.733 465.532 712.767 464.405C707.516 458.286 687.215 463.57 679.871 464.118C667.829 465.017 656.007 467.168 643.881 466.869ZM661.408 450.47C672.336 451.519 682.887 451.419 693.815 453.056C692.986 446.113 693.976 444.341 686.096 443.972C679.074 443.644 672.075 443.379 665.086 443.382C649.369 443.391 633.689 443.091 617.954 443.091V450.147C632.507 448.658 646.828 451.348 661.408 450.47ZM608.864 476.418C615.76 476.389 622.278 478.99 629.175 479.664C633.302 480.067 632.006 480.579 634.869 482.651C639.329 485.879 640.614 484.159 640.055 479.774C638.16 464.939 619.371 468.266 608.544 467.442C609.255 470.979 607.62 473.979 605.21 476.418H608.864ZM683.403 457.373C673.484 457.533 663.554 458.097 653.704 457.891C649.295 457.799 643.583 456.926 639.262 457.677C636.096 458.227 633.449 459.839 629.977 460.438C635.077 463.184 637.662 461.329 643.024 460.704C648.381 460.08 653.817 460.093 659.196 459.767C668.028 459.232 677.444 457.117 686.146 457.693C686.305 456.467 685.392 456.36 683.403 457.373ZM604.73 489.501C600.179 489.49 606.441 484.317 607.263 483.804C602.224 483.804 601.004 480.783 602.464 475.93C603.839 471.359 604.857 472.758 601.396 468.951C598.791 466.085 598.397 463.973 601.468 460.768C604.593 457.508 610.922 458.431 613.691 455.74C618.405 451.159 612.322 442.037 618.854 438.528C623.27 436.157 630.387 436.45 635.262 435.949C639.973 435.465 644.85 435.372 649.594 435.307C659.933 435.166 670.673 436.899 680.966 437.854C684.72 438.2 688.938 439.716 692.636 439.719C696.407 439.723 700.356 438.883 704.249 438.98C708.776 439.094 713.135 438.76 717.803 439.502C721.379 440.072 729.729 440.371 732.462 443.029C741.57 451.885 719.972 455.952 716.255 456.946C720.037 461.088 719.88 466.563 719.31 471.778C721.111 471.778 724.214 470.994 725.146 473.013C726.304 475.519 722.02 476.17 721.007 476.462C715.179 478.145 708.359 477.684 702.354 478.295C690.348 479.516 678.487 480.221 666.606 482.495C660.816 483.602 655.06 484.974 649.274 486.052C648.276 486.239 647.271 486.388 646.262 486.501C644.713 486.369 644.213 487.34 644.759 489.42C643.153 490.204 637.165 488.25 635.313 487.951C624.714 486.232 615.231 486.946 604.73 489.501Z" fill="white"/>
<path fill-rule="evenodd" clip-rule="evenodd" d="M818.77 592.391C811.934 597.769 805.579 602.844 798.175 607.517C803.408 607.354 820.814 599.01 818.77 592.391ZM816.101 583.625C812.369 580.42 808.662 580.748 804.044 579.777C799.791 578.882 795.658 577.342 791.414 576.316C788.083 575.512 784.786 574.424 781.467 573.663C776.78 572.589 776.318 573.772 772.008 576.226C756.722 584.935 739.617 590.925 723.517 597.993C728.244 602.153 738.878 602.332 744.785 603.659C749.1 604.626 753.204 605.95 757.335 607.481C761.183 608.91 767.381 612.193 771.438 612.303C774.863 612.395 777.647 609.026 780.595 607.212C784.474 604.823 788.335 602.478 792.244 600.149C800.516 595.222 808.25 589.185 816.101 583.625ZM747.021 618.898C745.256 617.201 739.945 617.275 737.733 616.757C733.375 615.739 729.08 614.682 724.664 613.917C717.497 612.678 706.176 612.123 705.397 602.829C704.749 595.104 714.085 593.272 719.546 590.655C727.758 586.718 736.136 583.086 744.556 579.614C752.45 576.361 760.46 573.608 768.499 570.796C770.067 570.248 771.339 570.324 772.619 569.069C773.629 568.08 773.317 566.158 774.424 565.124C776.957 562.755 780.245 564.002 783.29 564.609C790.205 565.988 797.384 567.798 803.977 570.355C810.828 573.013 816.955 573.568 818.6 581.332C822.104 579.689 824.738 579.45 824.319 584.277C824.197 585.696 823.166 587.239 822.919 588.702C822.555 590.858 823.192 593.131 822.832 595.294C821.521 603.156 810.916 608.98 804.345 612.067C796.242 615.873 785.786 621.497 776.739 622.24C767.098 623.032 756.592 619.248 747.021 618.898Z" fill="white"/>
<path fill-rule="evenodd" clip-rule="evenodd" d="M624.309 488.464C621.435 488.482 618.559 488.5 615.686 488.518C618.554 487.979 621.429 487.973 624.309 488.464Z" fill="white"/>
<path fill-rule="evenodd" clip-rule="evenodd" d="M456.159 184.464C455.297 185.9 454.435 187.336 453.572 188.774C453.866 186.922 454.523 185.335 456.159 184.464Z" fill="white"/>
<path fill-rule="evenodd" clip-rule="evenodd" d="M624.309 529.664C626.037 529.679 627.764 529.692 629.482 529.709C627.751 529.696 626.031 529.68 624.309 529.664Z" fill="white"/>
<path fill-rule="evenodd" clip-rule="evenodd" d="M629.482 488.506C627.757 488.49 626.031 488.474 624.309 488.458C626.039 487.986 627.765 488.003 629.482 488.506Z" fill="white"/>
<path fill-rule="evenodd" clip-rule="evenodd" d="M698.109 243.94C698.061 242.215 698.012 240.491 697.962 238.768C698.012 240.494 698.061 242.216 698.109 243.94Z" fill="white"/>
<path fill-rule="evenodd" clip-rule="evenodd" d="M404.906 504.258C404.87 502.821 404.834 501.383 404.799 499.948C404.835 501.387 404.87 502.822 404.906 504.258Z" fill="white"/>
<path fill-rule="evenodd" clip-rule="evenodd" d="M451.848 434.005C453.001 434.005 454.153 434.007 455.297 434.008C454.142 434.008 452.995 434.007 451.848 434.005Z" fill="white"/>
<path fill-rule="evenodd" clip-rule="evenodd" d="M606.2 124.4C604.763 124.504 603.325 124.608 601.889 124.712C603.326 124.608 604.764 124.504 606.2 124.4Z" fill="white"/>
<path fill-rule="evenodd" clip-rule="evenodd" d="M569.617 545.633C569.574 544.482 569.53 543.33 569.489 542.185C569.531 543.338 569.574 544.486 569.617 545.633Z" fill="white"/>
<path fill-rule="evenodd" clip-rule="evenodd" d="M571.323 501.672C571.292 500.522 571.261 499.371 571.23 498.224C571.262 499.374 571.293 500.523 571.323 501.672Z" fill="white"/>
<path fill-rule="evenodd" clip-rule="evenodd" d="M541.896 521.498C541.938 522.648 541.98 523.8 542.021 524.945C541.979 523.793 541.938 522.647 541.896 521.498Z" fill="white"/>
<path fill-rule="evenodd" clip-rule="evenodd" d="M458.746 433.163C459.612 433.151 460.476 433.139 461.333 433.126C460.466 433.139 459.606 433.151 458.746 433.163Z" fill="white"/>
<path fill-rule="evenodd" clip-rule="evenodd" d="M708.814 478.023C709.679 477.986 710.543 477.948 711.401 477.911C710.534 477.949 709.673 477.986 708.814 478.023Z" fill="white"/>
<path fill-rule="evenodd" clip-rule="evenodd" d="M543.609 549.081C543.659 550.232 543.708 551.383 543.757 552.529C543.708 551.375 543.659 550.228 543.609 549.081Z" fill="white"/>
<path fill-rule="evenodd" clip-rule="evenodd" d="M636.037 543.047C635.979 544.198 635.92 545.349 635.863 546.495C635.92 545.343 635.979 544.195 636.037 543.047Z" fill="white"/>
<path fill-rule="evenodd" clip-rule="evenodd" d="M536.65 29.4339C535.433 29.2787 534.213 29.1249 532.994 28.9697C534.203 29.249 535.527 28.2133 536.65 29.4339Z" fill="white"/>
<path fill-rule="evenodd" clip-rule="evenodd" d="M484.234 471.503C484.201 472.653 484.168 473.804 484.134 474.951C484.166 473.797 484.2 472.65 484.234 471.503Z" fill="white"/>
<path fill-rule="evenodd" clip-rule="evenodd" d="M410.115 576.664C410.056 575.514 409.996 574.364 409.937 573.216C409.997 574.366 410.056 575.515 410.115 576.664Z" fill="white"/>
<path fill-rule="evenodd" clip-rule="evenodd" d="M688.981 479.718C689.848 479.7 690.712 479.681 691.568 479.665C690.701 479.684 689.841 479.701 688.981 479.718Z" fill="white"/>
<path fill-rule="evenodd" clip-rule="evenodd" d="M396.219 270.662C396.226 271.813 396.233 272.964 396.238 274.11C396.231 272.957 396.226 271.81 396.219 270.662Z" fill="white"/>
<path fill-rule="evenodd" clip-rule="evenodd" d="M378.128 529.255C378.124 530.406 378.12 531.559 378.114 532.703C378.117 531.551 378.122 530.403 378.128 529.255Z" fill="white"/>
<path fill-rule="evenodd" clip-rule="evenodd" d="M593.044 522.359C593.013 523.51 592.983 524.662 592.95 525.807C592.477 524.626 592.531 523.48 593.044 522.359Z" fill="white"/>
<path fill-rule="evenodd" clip-rule="evenodd" d="M570.428 517.188C570.419 516.037 570.41 514.887 570.401 513.74C570.41 514.893 570.419 516.04 570.428 517.188Z" fill="white"/>
<path fill-rule="evenodd" clip-rule="evenodd" d="M746.756 619.296C747.622 619.32 748.487 619.343 749.343 619.367C748.474 619.344 747.615 619.32 746.756 619.296Z" fill="white"/>
<path fill-rule="evenodd" clip-rule="evenodd" d="M715.713 509.875C716.29 509.865 716.868 509.856 717.438 509.845C716.857 509.856 716.285 509.865 715.713 509.875Z" fill="white"/>
<path fill-rule="evenodd" clip-rule="evenodd" d="M694.155 512.448C694.734 512.447 695.31 512.446 695.88 512.445C695.301 512.447 694.728 512.447 694.155 512.448Z" fill="white"/>
<path fill-rule="evenodd" clip-rule="evenodd" d="M358.339 518.05C358.305 517.188 358.269 516.324 358.236 515.464C358.271 516.327 358.306 517.189 358.339 518.05Z" fill="white"/>
<path fill-rule="evenodd" clip-rule="evenodd" d="M711.401 517.395C710.652 518.153 709.689 517.706 708.814 517.754C709.677 517.634 710.54 517.515 711.401 517.395Z" fill="white"/>
<path fill-rule="evenodd" clip-rule="evenodd" d="M608.787 489.817C607.649 490.355 606.498 490.429 605.338 489.854C606.488 489.842 607.638 489.83 608.787 489.817Z" fill="white"/>
<path fill-rule="evenodd" clip-rule="evenodd" d="M683.808 519.357C682.657 519.348 681.507 519.338 680.358 519.328C681.509 519.338 682.659 519.348 683.808 519.357Z" fill="white"/>
<path fill-rule="evenodd" clip-rule="evenodd" d="M372.118 485.294C372.097 486.159 372.074 487.022 372.051 487.88C372.072 487.015 372.095 486.154 372.118 485.294Z" fill="white"/>
<path fill-rule="evenodd" clip-rule="evenodd" d="M570.348 531.841C570.393 530.978 570.437 530.114 570.481 529.255C570.437 530.121 570.393 530.981 570.348 531.841Z" fill="white"/>
<path fill-rule="evenodd" clip-rule="evenodd" d="M688.981 482.133C687.832 482.229 686.682 482.326 685.532 482.422C686.683 482.326 687.832 482.229 688.981 482.133Z" fill="white"/>
<path fill-rule="evenodd" clip-rule="evenodd" d="M404.887 479.26C404.864 478.397 404.84 477.533 404.816 476.675C404.84 477.54 404.864 478.4 404.887 479.26Z" fill="white"/>
<path fill-rule="evenodd" clip-rule="evenodd" d="M548.959 412.888C548.89 413.752 548.822 414.615 548.755 415.474C548.823 414.61 548.891 413.75 548.959 412.888Z" fill="white"/>
<path fill-rule="evenodd" clip-rule="evenodd" d="M706.228 438.972C705.076 439.568 703.927 439.493 702.778 438.966C703.928 438.967 705.078 438.97 706.228 438.972Z" fill="white"/>
<path fill-rule="evenodd" clip-rule="evenodd" d="M569.629 558.562C569.577 557.699 569.526 556.837 569.476 555.977C569.526 556.841 569.577 557.701 569.629 558.562Z" fill="white"/>
<path fill-rule="evenodd" clip-rule="evenodd" d="M569.607 565.458C569.57 564.596 569.533 563.733 569.498 562.873C569.535 563.736 569.571 564.597 569.607 565.458Z" fill="white"/>
<path fill-rule="evenodd" clip-rule="evenodd" d="M406.559 451.677C406.572 450.814 406.583 449.95 406.595 449.091C406.582 449.957 406.571 450.816 406.559 451.677Z" fill="white"/>
<path fill-rule="evenodd" clip-rule="evenodd" d="M651.902 589.186C652.479 589.17 653.057 589.153 653.627 589.139C653.047 589.157 652.475 589.171 651.902 589.186Z" fill="white"/>
<path fill-rule="evenodd" clip-rule="evenodd" d="M373.879 596.49C373.832 595.627 373.786 594.764 373.739 593.904C373.787 594.767 373.832 595.629 373.879 596.49Z" fill="white"/>
<path fill-rule="evenodd" clip-rule="evenodd" d="M560.498 603.798C561.076 603.81 561.654 603.822 562.223 603.835C561.643 603.822 561.071 603.81 560.498 603.798Z" fill="white"/>
<path fill-rule="evenodd" clip-rule="evenodd" d="M560.857 530.117C560.906 527.53 560.953 524.944 561.002 522.359C560.953 524.946 560.905 527.531 560.857 530.117Z" fill="white"/>
<path fill-rule="evenodd" clip-rule="evenodd" d="M493.625 435.3C493.654 437.312 493.683 439.325 493.714 441.333C493.685 439.319 493.655 437.309 493.625 435.3Z" fill="white"/>
<path fill-rule="evenodd" clip-rule="evenodd" d="M344.922 561.553C343.483 561.57 342.041 561.587 340.61 561.606C342.054 561.589 343.488 561.571 344.922 561.553Z" fill="white"/>
<path fill-rule="evenodd" clip-rule="evenodd" d="M463.058 390.079C461.617 390.056 460.177 390.033 458.746 390.012C460.19 390.035 461.624 390.058 463.058 390.079Z" fill="white"/>
<path fill-rule="evenodd" clip-rule="evenodd" d="M425.979 423.665C427.417 423.665 428.854 423.663 430.29 423.661C428.853 423.661 427.416 423.664 425.979 423.665Z" fill="white"/>
<path fill-rule="evenodd" clip-rule="evenodd" d="M444.949 389.155C443.795 389.174 442.643 389.194 441.5 389.212C442.657 389.193 443.803 389.174 444.949 389.155Z" fill="white"/>
<path fill-rule="evenodd" clip-rule="evenodd" d="M351.82 561.589C350.667 561.582 349.515 561.576 348.371 561.57C349.528 561.577 350.674 561.582 351.82 561.589Z" fill="white"/>
<path fill-rule="evenodd" clip-rule="evenodd" d="M507.035 121.258C508.472 121.158 509.91 121.058 511.347 120.958C509.909 121.058 508.472 121.158 507.035 121.258Z" fill="white"/>
<path fill-rule="evenodd" clip-rule="evenodd" d="M526.357 222.391C526.41 220.954 526.464 219.517 526.517 218.081C526.463 219.519 526.41 220.955 526.357 222.391Z" fill="white"/>
<path fill-rule="evenodd" clip-rule="evenodd" d="M491.514 235.75C490.649 235.75 489.783 235.751 488.927 235.752C489.795 235.752 490.654 235.751 491.514 235.75Z" fill="white"/>
<path fill-rule="evenodd" clip-rule="evenodd" d="M418.218 386.584C417.353 386.593 416.487 386.603 415.631 386.612C416.499 386.604 417.358 386.593 418.218 386.584Z" fill="white"/>
<path fill-rule="evenodd" clip-rule="evenodd" d="M398.385 421.799C399.535 421.892 400.685 421.986 401.834 422.079C400.684 421.986 399.535 421.892 398.385 421.799Z" fill="white"/>
<path fill-rule="evenodd" clip-rule="evenodd" d="M396.201 465.469C396.22 464.318 396.239 463.169 396.256 462.021C396.238 463.173 396.22 464.321 396.201 465.469Z" fill="white"/>
<path fill-rule="evenodd" clip-rule="evenodd" d="M494.963 419.522C496.112 419.409 497.263 419.297 498.412 419.184C497.262 419.297 496.112 419.409 494.963 419.522Z" fill="white"/>
<path fill-rule="evenodd" clip-rule="evenodd" d="M573.761 399.096C573.83 397.946 573.898 396.795 573.966 395.648C573.898 396.8 573.829 397.948 573.761 399.096Z" fill="white"/>
<path fill-rule="evenodd" clip-rule="evenodd" d="M471.681 390.921C470.816 390.912 469.95 390.903 469.094 390.896C469.962 390.903 470.822 390.912 471.681 390.921Z" fill="white"/>
<path fill-rule="evenodd" clip-rule="evenodd" d="M396.292 530.117C396.249 529.253 396.208 528.391 396.165 527.531C396.208 528.395 396.249 529.256 396.292 530.117Z" fill="white"/>
<path fill-rule="evenodd" clip-rule="evenodd" d="M492.973 486.156C494.858 490.828 493.8 487.52 493.848 488.598C492.242 488.814 491.95 487.999 492.973 486.156Z" fill="white"/>
<path fill-rule="evenodd" clip-rule="evenodd" d="M413.906 386.644C413.042 386.613 412.176 386.582 411.319 386.55C412.189 386.581 413.047 386.612 413.906 386.644Z" fill="white"/>
<path fill-rule="evenodd" clip-rule="evenodd" d="M590.166 299.107C590.22 297.957 590.276 296.807 590.329 295.659C590.274 296.81 590.22 297.959 590.166 299.107Z" fill="white"/>
<path fill-rule="evenodd" clip-rule="evenodd" d="M396.233 521.497C396.231 520.348 396.227 519.199 396.225 518.05C396.227 519.202 396.23 520.35 396.233 521.497Z" fill="white"/>
<path fill-rule="evenodd" clip-rule="evenodd" d="M396.139 495.638C396.199 494.775 396.259 493.913 396.319 493.052C396.259 493.916 396.199 494.778 396.139 495.638Z" fill="white"/>
<path fill-rule="evenodd" clip-rule="evenodd" d="M575.468 382.719C575.548 381.856 575.629 380.993 575.709 380.133C575.629 380.997 575.548 381.858 575.468 382.719Z" fill="white"/>
<path fill-rule="evenodd" clip-rule="evenodd" d="M384.904 498.224C384.98 499.088 385.058 499.952 385.135 500.81C385.057 499.947 384.98 499.086 384.904 498.224Z" fill="white"/>
<path fill-rule="evenodd" clip-rule="evenodd" d="M383.167 491.328C383.252 492.191 383.337 493.055 383.422 493.914C383.337 493.049 383.252 492.188 383.167 491.328Z" fill="white"/>
<path fill-rule="evenodd" clip-rule="evenodd" d="M555.659 373.237C555.723 372.375 555.787 371.512 555.852 370.651C555.786 371.515 555.723 372.376 555.659 373.237Z" fill="white"/>
<path fill-rule="evenodd" clip-rule="evenodd" d="M115.549 490.171C116.697 490.081 117.848 489.99 118.998 489.9C117.845 489.99 116.697 490.081 115.549 490.171Z" fill="white"/>
<path fill-rule="evenodd" clip-rule="evenodd" d="M548.045 511.154C548.011 512.018 547.976 512.883 547.945 513.74C547.978 512.873 548.012 512.014 548.045 511.154Z" fill="white"/>
<path fill-rule="evenodd" clip-rule="evenodd" d="M561.696 513.74C561.76 512.878 561.823 512.014 561.888 511.154C561.823 512.018 561.76 512.879 561.696 513.74Z" fill="white"/>
<path fill-rule="evenodd" clip-rule="evenodd" d="M556.481 369.789C556.572 368.926 556.664 368.064 556.754 367.203C556.663 368.067 556.572 368.928 556.481 369.789Z" fill="white"/>
<path fill-rule="evenodd" clip-rule="evenodd" d="M122.447 489.343C123.598 489.23 124.748 489.116 125.896 489.003C124.748 489.116 123.596 489.23 122.447 489.343Z" fill="white"/>
<path fill-rule="evenodd" clip-rule="evenodd" d="M488.064 390.036C487.488 390.042 486.909 390.049 486.34 390.055C486.92 390.049 487.492 390.042 488.064 390.036Z" fill="white"/>
<path fill-rule="evenodd" clip-rule="evenodd" d="M396.233 487.88C396.231 487.017 396.227 486.154 396.225 485.294C396.227 486.159 396.231 487.018 396.233 487.88Z" fill="white"/>
<path fill-rule="evenodd" clip-rule="evenodd" d="M563.583 486.156C563.277 485.265 563.127 484.387 563.718 483.57C563.673 484.434 563.628 485.295 563.583 486.156Z" fill="white"/>
<path fill-rule="evenodd" clip-rule="evenodd" d="M548.894 469.779C548.87 470.642 548.844 471.505 548.821 472.365C548.846 471.5 548.87 470.639 548.894 469.779Z" fill="white"/>
<path fill-rule="evenodd" clip-rule="evenodd" d="M549.639 555.115C549.693 555.977 549.747 556.841 549.8 557.701C549.747 556.837 549.693 555.975 549.639 555.115Z" fill="white"/>
<path fill-rule="evenodd" clip-rule="evenodd" d="M613.099 241.602C613.962 241.725 614.824 241.847 615.686 241.97C614.822 241.846 613.961 241.723 613.099 241.602Z" fill="white"/>
<path fill-rule="evenodd" clip-rule="evenodd" d="M609.649 241.682C610.807 241.752 612.078 241.196 613.099 242.01L609.649 241.682Z" fill="white"/>
<path fill-rule="evenodd" clip-rule="evenodd" d="M488.064 240.773L491.514 241.073C490.362 240.973 489.215 240.873 488.064 240.773Z" fill="white"/>
<path fill-rule="evenodd" clip-rule="evenodd" d="M431.152 423.438C432.304 423.443 433.452 423.448 434.602 423.453C433.447 424.009 432.297 424.063 431.152 423.438Z" fill="white"/>
<path fill-rule="evenodd" clip-rule="evenodd" d="M399.776 568.044C399.712 567.18 399.646 566.317 399.58 565.458C399.646 566.323 399.712 567.183 399.776 568.044Z" fill="white"/>
<path fill-rule="evenodd" clip-rule="evenodd" d="M525.556 242.216C525.569 241.353 525.581 240.491 525.594 239.63C525.581 240.495 525.569 241.356 525.556 242.216Z" fill="white"/>
<path fill-rule="evenodd" clip-rule="evenodd" d="M452.71 423.802C453.86 423.709 455.01 423.617 456.159 423.523C455.009 423.617 453.86 423.709 452.71 423.802Z" fill="white"/>
<path fill-rule="evenodd" clip-rule="evenodd" d="M550.553 575.802C550.571 576.665 550.592 577.528 550.611 578.388C550.592 577.523 550.571 576.663 550.553 575.802Z" fill="white"/>
<path fill-rule="evenodd" clip-rule="evenodd" d="M568.572 440.471C568.651 439.609 568.73 438.746 568.808 437.885C568.73 438.749 568.65 439.609 568.572 440.471Z" fill="white"/>
<path fill-rule="evenodd" clip-rule="evenodd" d="M608.258 210.323C608.324 209.459 608.39 208.597 608.454 207.737C608.39 208.601 608.323 209.462 608.258 210.323Z" fill="white"/>
<path fill-rule="evenodd" clip-rule="evenodd" d="M526.412 136.193C526.428 137.056 526.444 137.919 526.462 138.779C526.446 137.914 526.429 137.053 526.412 136.193Z" fill="white"/>
<path fill-rule="evenodd" clip-rule="evenodd" d="M495.825 120.102C496.975 120.198 498.126 120.295 499.274 120.389C498.125 120.294 496.975 120.198 495.825 120.102Z" fill="white"/>
<path fill-rule="evenodd" clip-rule="evenodd" d="M323.364 610.02C324.515 609.907 325.663 609.795 326.813 609.682C325.663 609.795 324.515 609.907 323.364 610.02Z" fill="white"/>
<path fill-rule="evenodd" clip-rule="evenodd" d="M497.55 111.627C496.973 111.626 496.394 111.625 495.825 111.625C496.405 111.627 496.977 111.627 497.55 111.627Z" fill="white"/>
<path fill-rule="evenodd" clip-rule="evenodd" d="M285.423 621.246C286.574 620.653 287.723 620.822 288.872 621.25C287.723 621.248 286.571 621.248 285.423 621.246Z" fill="white"/>
<path fill-rule="evenodd" clip-rule="evenodd" d="M732.959 556.368C731.805 556.394 730.653 556.421 729.51 556.447C730.665 556.421 731.812 556.394 732.959 556.368Z" fill="white"/>
<path fill-rule="evenodd" clip-rule="evenodd" d="M715.713 539.272C717.15 539.163 718.587 539.053 720.024 538.944C718.684 539.786 717.15 539.163 715.713 539.272Z" fill="white"/>
<path fill-rule="evenodd" clip-rule="evenodd" d="M699.329 541.048C700.767 540.944 702.203 540.84 703.641 540.736C702.204 540.84 700.767 540.944 699.329 541.048Z" fill="white"/>
<path fill-rule="evenodd" clip-rule="evenodd" d="M685.532 555.698C686.682 555.596 687.831 555.496 688.981 555.393C687.832 555.495 686.683 555.596 685.532 555.698Z" fill="white"/>
<path fill-rule="evenodd" clip-rule="evenodd" d="M691.568 526.23C690.703 526.237 689.839 526.242 688.981 526.246C689.85 526.239 690.71 526.235 691.568 526.23Z" fill="white"/>
<path fill-rule="evenodd" clip-rule="evenodd" d="M713.126 573.718C714.275 573.622 715.426 573.523 716.575 573.427C715.502 574.18 714.29 573.747 713.126 573.718Z" fill="white"/>
<path fill-rule="evenodd" clip-rule="evenodd" d="M676.047 490.899C675.181 490.898 674.316 490.896 673.46 490.896C674.329 490.896 675.188 490.898 676.047 490.899Z" fill="white"/>
<path fill-rule="evenodd" clip-rule="evenodd" d="M667.424 492.617C666.847 492.621 666.269 492.623 665.699 492.625C666.28 492.622 666.851 492.62 667.424 492.617Z" fill="white"/>
<path fill-rule="evenodd" clip-rule="evenodd" d="M646.729 495.018C646.439 495.727 644.915 495.636 645.008 494.909C645.581 494.945 646.154 494.982 646.729 495.018Z" fill="white"/>
<path fill-rule="evenodd" clip-rule="evenodd" d="M606.579 498.224C606.614 499.086 606.65 499.95 606.684 500.81C606.649 499.946 606.614 499.084 606.579 498.224Z" fill="white"/>
<path fill-rule="evenodd" clip-rule="evenodd" d="M724.336 502.793C725.198 502.779 726.061 502.765 726.923 502.75C726.071 503.359 725.208 503.274 724.336 502.793Z" fill="white"/>
<path fill-rule="evenodd" clip-rule="evenodd" d="M691.568 490.023C690.991 490.032 690.414 490.04 689.844 490.047C690.424 490.04 690.996 490.032 691.568 490.023Z" fill="white"/>
<path fill-rule="evenodd" clip-rule="evenodd" d="M669.148 544.501C670.299 544.393 671.449 544.286 672.598 544.179C671.447 544.286 670.299 544.393 669.148 544.501Z" fill="white"/>
<path fill-rule="evenodd" clip-rule="evenodd" d="M681.221 577.275C682.373 576.854 683.524 576.711 684.67 577.285C683.52 577.282 682.37 577.279 681.221 577.275Z" fill="white"/>
<path fill-rule="evenodd" clip-rule="evenodd" d="M679.393 458.459L677.771 457.899C679.783 457.874 681.796 457.849 683.808 457.825C683.812 457.826 679.625 458.477 679.393 458.459Z" fill="white"/>
<path fill-rule="evenodd" clip-rule="evenodd" d="M663.975 443.49C662.534 443.489 661.094 443.487 659.663 443.487C661.106 443.488 662.541 443.49 663.975 443.49Z" fill="white"/>
<path fill-rule="evenodd" clip-rule="evenodd" d="M609.649 476.439C611.084 475.865 612.522 475.977 613.961 476.424C612.523 476.429 611.087 476.434 609.649 476.439Z" fill="white"/>
<path fill-rule="evenodd" clip-rule="evenodd" d="M696.742 462.436C695.877 462.447 695.012 462.457 694.155 462.467C695.024 462.456 695.882 462.447 696.742 462.436Z" fill="white"/>
<path fill-rule="evenodd" clip-rule="evenodd" d="M678.634 451.105C680.072 451.199 681.51 451.293 682.945 451.387C681.509 451.292 680.07 451.199 678.634 451.105Z" fill="white"/>
<path fill-rule="evenodd" clip-rule="evenodd" d="M662.25 450.243C663.4 450.337 664.55 450.431 665.699 450.525C664.549 450.431 663.399 450.337 662.25 450.243Z" fill="white"/>
<path fill-rule="evenodd" clip-rule="evenodd" d="M645.866 466.78C645.288 466.768 644.712 466.756 644.142 466.744C644.721 466.756 645.294 466.768 645.866 466.78Z" fill="white"/>
<path fill-rule="evenodd" clip-rule="evenodd" d="M663.975 458.196C663.397 458.16 662.82 458.124 662.25 458.089C662.829 458.124 663.402 458.16 663.975 458.196Z" fill="white"/>
<path fill-rule="evenodd" clip-rule="evenodd" d="M652.765 458.165C652.187 458.149 651.609 458.133 651.04 458.118C651.62 458.134 652.192 458.15 652.765 458.165Z" fill="white"/>
<path fill-rule="evenodd" clip-rule="evenodd" d="M683.808 457.364C683.808 457.587 686.405 456.454 686.395 457.508L683.808 457.364Z" fill="white"/>
<path fill-rule="evenodd" clip-rule="evenodd" d="M674.322 443.487C673.745 443.487 673.168 443.489 672.598 443.49C673.178 443.489 673.75 443.487 674.322 443.487Z" fill="white"/>
<path fill-rule="evenodd" clip-rule="evenodd" d="M368.204 402.61C369.138 398.801 368.884 395.82 372.209 398.254C374.034 399.591 377.044 406.368 376.815 408.663C376.534 411.495 375.242 412.623 372.576 411.723C369.511 410.685 368.296 405.459 368.204 402.61Z" fill="white"/>
<path fill-rule="evenodd" clip-rule="evenodd" d="M536.207 379.484C543.93 379.484 540.56 387.699 534.123 387.883C531.165 387.968 526.91 387.385 527.868 383.426C528.381 381.314 535.884 378.466 536.207 379.484Z" fill="white"/>
<path fill-rule="evenodd" clip-rule="evenodd" d="M453.377 395.648C458.952 398.345 451.109 410.184 446.043 407.253C439.557 403.502 451.085 397.338 453.377 395.648Z" fill="white"/>
<path fill-rule="evenodd" clip-rule="evenodd" d="M439.813 406.854C441.638 408.844 449.861 415.589 445.329 418.301C439.755 421.636 435.512 410.626 439.813 406.854Z" fill="white"/>
<path fill-rule="evenodd" clip-rule="evenodd" d="M346.369 401.682C344.555 398.177 347.051 389.003 352.589 390.679C358.161 392.368 349.435 400.751 346.369 401.682Z" fill="white"/>
<path fill-rule="evenodd" clip-rule="evenodd" d="M469.387 403.703C473.003 402.248 472.314 406.552 472.86 407.941C473.479 409.519 476.663 413.361 475.865 415.04C474.68 417.532 471.847 415.944 470.309 414.327C467.612 411.49 467.804 406.94 469.387 403.703Z" fill="white"/>
<path fill-rule="evenodd" clip-rule="evenodd" d="M414.286 407.693C411.273 407.693 404.079 399.008 408.306 397.55C413.552 395.742 417.938 408.331 414.286 407.693Z" fill="white"/>
<path fill-rule="evenodd" clip-rule="evenodd" d="M518.424 393.925C521.185 394.605 524.837 402.416 520.678 403.322C516.073 404.326 515.251 396.085 518.424 393.925Z" fill="white"/>
<path fill-rule="evenodd" clip-rule="evenodd" d="M501.691 408.578C499.526 404.411 498.993 395.492 504.278 402.651C505.423 404.202 506.605 403.574 506.017 406.133C505.503 408.366 503.451 408.578 501.691 408.578Z" fill="white"/>
<path fill-rule="evenodd" clip-rule="evenodd" d="M387.679 387.029C389.885 390.348 389.234 400.757 384.624 394.6C382.663 391.983 384.014 387.153 387.679 387.029Z" fill="white"/>
<path fill-rule="evenodd" clip-rule="evenodd" d="M498.574 74.2147C502.855 73.1101 503.881 83.1978 501.384 84.3097C497.89 85.8659 498.328 75.9021 498.574 74.2147Z" fill="white"/>
<path fill-rule="evenodd" clip-rule="evenodd" d="M769.31 586.705C765.338 586.474 759.772 585.39 765.79 582.572C769.608 580.786 775.284 580.662 779.316 581.395C782.095 581.9 786.264 584.202 782.024 587.187C779.541 588.933 772.328 586.791 769.31 586.705Z" fill="white"/>
<path fill-rule="evenodd" clip-rule="evenodd" d="M764.858 593.903C763.709 593.774 762.561 593.644 761.415 593.516C762.336 591.845 765.012 591.494 764.858 593.903Z" fill="white"/>
<path fill-rule="evenodd" clip-rule="evenodd" d="M770.038 586.539C771.191 586.564 772.344 586.591 773.487 586.615C772.331 586.59 771.184 586.564 770.038 586.539Z" fill="white"/>
</svg>
